<svg width="88" height="43" viewBox="0 0 88 43" fill="none" xmlns="http://www.w3.org/2000/svg">
<path fill-rule="evenodd" clip-rule="evenodd" d="M27.1069 28.1406H32.6839V29.9816H30.0251V43H27.1069V28.1406Z" fill="#0070BA"/>
<path fill-rule="evenodd" clip-rule="evenodd" d="M36.056 37.4113L36.5748 29.9816H36.7693L37.2881 37.4113H36.056ZM32.7487 43H35.6021L35.8615 39.055H37.2233L37.4827 43H40.336L38.7797 28.1406H34.3051L32.7487 43Z" fill="#0070BA"/>
<path fill-rule="evenodd" clip-rule="evenodd" d="M44.6161 37.8057V40.633C44.6161 41.0275 44.9403 41.0932 45.07 41.0932C45.3294 41.0932 45.524 40.8302 45.524 40.633V37.1483C45.524 36.688 45.4591 36.162 44.3567 36.162H43.1894V34.5183H44.4215C45.2646 34.5183 45.524 34.3211 45.524 33.4006V30.4418C45.524 30.1789 45.3294 29.9816 45.07 29.9816C44.8755 29.9816 44.6161 30.1131 44.6161 30.4418V32.8746H41.6979V30.7706C41.6979 29.7186 41.8276 28.1406 43.9027 28.1406H46.3022C48.3773 28.1406 48.507 29.7844 48.507 30.7706V33.1376C48.507 34.7813 47.4046 35.1758 46.4967 35.1758V35.3073C48.4422 35.2415 48.507 36.8195 48.507 37.3455V40.37C48.507 41.422 48.3773 43 46.3022 43H43.9027C41.8276 43 41.6979 41.3562 41.6979 40.37V37.8057H44.6161Z" fill="#0070BA"/>
<path fill-rule="evenodd" clip-rule="evenodd" d="M50.4525 28.1406H57.1968V43H54.2786V29.9816H53.3707V43H50.4525V28.1406Z" fill="#0070BA"/>
<path fill-rule="evenodd" clip-rule="evenodd" d="M62.0605 36.2936V29.9816H62.4496C62.7738 29.9816 62.9684 30.2446 62.9684 30.7049V35.5703C62.9684 36.0306 62.709 36.2936 62.4496 36.2936H62.0605ZM59.1423 43H62.0605V37.9373H63.7466C65.8217 37.9373 65.9514 36.2936 65.9514 35.3073V30.8364C65.9514 29.7844 65.8217 28.2064 63.7466 28.2064H59.1423V43Z" fill="#0070BA"/>
<path fill-rule="evenodd" clip-rule="evenodd" d="M71.723 40.5672C71.723 40.8302 71.5284 41.0275 71.269 41.0275C71.0745 41.0275 70.8151 40.896 70.8151 40.5672V30.4418C70.8151 30.0474 71.1393 29.9816 71.269 29.9816C71.5284 29.9816 71.723 30.2446 71.723 30.4418V40.5672ZM67.8969 40.3042C67.8969 41.3562 68.0266 42.9342 70.1018 42.9342H72.5012C74.5763 42.9342 74.706 41.2905 74.706 40.3042V30.7706C74.706 29.7186 74.5763 28.1406 72.5012 28.1406H70.1018C68.0266 28.1406 67.8969 29.7844 67.8969 30.7706V40.3042Z" fill="#0070BA"/>
<path fill-rule="evenodd" clip-rule="evenodd" d="M84.174 28.1406H88V43H85.0818V33.6636H84.9521L83.4606 43H81.1261L79.6345 33.6636H79.5048V43H76.5866V28.1406H80.4127L82.2933 38.5947L84.174 28.1406Z" fill="#0070BA"/>
<path fill-rule="evenodd" clip-rule="evenodd" d="M23.3457 7.75842C22.4378 3.74772 20.1681 0.525994 19.9087 0C19.3899 0.723241 17.639 3.61622 16.7311 6.77218C15.7583 10.3226 15.5638 13.4786 15.9529 16.5688C16.2771 19.659 17.5741 22.815 17.5741 22.815C18.2875 24.4587 19.2602 26.2339 19.9735 27.1544C20.9463 25.8395 23.216 22.026 23.9293 16.9633C24.1887 14.2018 24.1887 11.7691 23.3457 7.75842ZM19.8438 26.1682C19.3899 25.3135 18.7414 23.7355 18.6765 21.237C18.6765 18.87 19.5844 16.7661 19.9087 16.3716C20.1681 16.8318 20.9463 18.607 21.076 21.0397C21.076 23.4725 20.2978 25.3135 19.8438 26.1682ZM23.0863 14.5306C23.0214 16.0428 22.8917 17.6866 22.6323 18.607C22.6972 16.9633 22.5026 14.5963 22.1135 12.8211C21.7245 10.9801 20.6869 7.95566 19.8438 6.57492C19.0656 7.88991 18.0929 10.5199 17.5741 12.8211C17.0553 15.1223 17.0553 17.8838 17.0553 18.6728C16.9256 17.9496 16.6014 15.5168 16.6662 12.9526C16.7311 10.9144 17.2499 8.74466 17.5093 7.82417C18.482 4.53671 19.6493 2.49848 19.8438 2.16974C20.0384 2.49848 21.465 5.0627 22.1784 7.75842C22.9566 10.4541 23.0863 13.0183 23.0863 14.5306Z" fill="#0070BA"/>
<path fill-rule="evenodd" clip-rule="evenodd" d="M21.4001 28.1406H14.591V32.8088C16.2122 31.1651 18.8062 31.1651 20.4274 32.8088C22.0486 34.4526 22.0486 37.0825 20.4274 38.7263C18.8062 40.37 16.731 41.159 14.6559 41.159C12.5807 41.159 10.4407 40.37 8.81946 38.7263C5.96611 35.8333 5.64186 31.4281 7.78187 28.1406C8.04127 27.6804 8.43036 27.2859 8.81946 26.8914C10.4407 25.2477 12.5158 24.4587 14.6559 24.4587V13.2813C6.54975 13.2813 0 19.922 0 28.1406C0 36.3593 6.54975 43 14.6559 43C18.871 43 22.6971 41.159 25.3559 38.266V28.1406H21.4001Z" fill="#0070BA"/>
</svg>
