<svg width="25" height="36" viewBox="0 0 25 36" fill="none" xmlns="http://www.w3.org/2000/svg">
<g clip-path="url(#clip0)">
<path d="M20.6947 0L16.6421 9.93129H8.22443L11.966 0H20.6947Z" fill="#892020"/>
<path d="M17.0283 8.20932H7.91412C7.62663 8.20932 7.35089 8.32342 7.14746 8.52657C6.94404 8.72972 6.82956 9.0053 6.82916 9.29279V15.0971H18.1133V9.29279C18.1129 9.0053 17.9984 8.72972 17.795 8.52657C17.5916 8.32342 17.3158 8.20932 17.0283 8.20932ZM17.3111 10.3361H7.42447V9.88959C7.42447 9.65789 7.51652 9.43568 7.68035 9.27184C7.84419 9.10801 8.0664 9.01597 8.29809 9.01597H16.4375C16.6692 9.01597 16.8914 9.10801 17.0552 9.27184C17.2191 9.43568 17.3111 9.65789 17.3111 9.88959V10.3361Z" fill="#6B7384"/>
<path d="M4.30585 0L8.22448 9.93129H16.6422L12.8114 0H4.30585Z" fill="#FA352C"/>
<path d="M9.77481 9.93129L5.77581 0H5.13287L9.13337 9.93129H9.77481Z" fill="#FF740D"/>
<path d="M11.7383 9.93129L7.73782 0H7.09637L11.0969 9.93129H11.7383Z" fill="#FF740D"/>
<path d="M13.6291 9.93129L9.63012 0H8.98718L12.9877 9.93129H13.6291Z" fill="#FF740D"/>
<path d="M15.662 9.93129L11.6615 0H11.02L15.0205 9.93129H15.662Z" fill="#FF740D"/>
<path d="M24.3626 25.361C25.2409 18.6627 20.5228 12.5207 13.8245 11.6424C7.12621 10.7641 0.984175 15.4822 0.105894 22.1805C-0.772387 28.8788 3.94568 35.0208 10.644 35.8991C17.3423 36.7774 23.4843 32.0593 24.3626 25.361Z" fill="#798093"/>
<path d="M12.2324 11.5357C12.1113 11.5357 11.9908 11.5357 11.8707 11.5357C15.0477 11.6348 18.0613 12.9666 20.2735 15.2489C22.4857 17.5312 23.7228 20.5849 23.7228 23.7634C23.7228 26.9419 22.4857 29.9956 20.2735 32.2779C18.0613 34.5602 15.0477 35.892 11.8707 35.9911H12.2324C15.4766 35.9911 18.5879 34.7024 20.8818 32.4084C23.1758 30.1144 24.4645 27.0031 24.4645 23.7589C24.4645 20.5148 23.1758 17.4035 20.8818 15.1095C18.5879 12.8155 15.4766 11.5268 12.2324 11.5268V11.5357Z" fill="#6B7384"/>
<path d="M22.1258 25.0677C22.842 19.6049 18.9942 14.5957 13.5314 13.8795C8.06863 13.1632 3.05949 17.011 2.34321 22.4738C1.62693 27.9366 5.47474 32.9457 10.9375 33.662C16.4003 34.3783 21.4095 30.5305 22.1258 25.0677Z" fill="#9EA8BA"/>
<path d="M11.9205 25.5106H14.9729V27.0197H9.49457V25.4644C10.453 24.6414 12.8372 22.6516 12.8372 21.4059C12.8372 20.7749 12.4235 20.3433 11.7374 20.3433C11.0513 20.3433 10.3563 20.6171 9.74757 20.9281L9.694 19.2643C13.8299 17.6271 16.1114 20.2421 14.1588 23.1234C13.6875 23.8219 12.9414 24.6176 11.9205 25.5106Z" fill="#CAD5E5"/>
<path d="M11.0132 30.7032C11.2597 30.9162 11.4326 31.2016 11.5073 31.5188C11.1777 31.5171 10.8569 31.4131 10.589 31.2211C10.3425 31.0081 10.1696 30.7226 10.0949 30.4055C10.4245 30.4071 10.7453 30.5112 11.0132 30.7032Z" fill="#BAC6D8"/>
<path d="M10.5414 31.4995C10.8578 31.4073 11.1949 31.414 11.5073 31.5188C11.3292 31.7954 11.069 32.0093 10.7632 32.1305C10.4469 32.2235 10.1096 32.2168 9.7973 32.1111C9.97544 31.8346 10.2356 31.6207 10.5414 31.4995Z" fill="#BAC6D8"/>
<path d="M9.4912 30.2895C9.70586 30.5346 9.83719 30.8415 9.86625 31.1661C9.54088 31.1203 9.23772 30.9747 8.99858 30.7494C8.78403 30.5047 8.6527 30.1983 8.62354 29.8743C8.94856 29.9202 9.25153 30.0652 9.4912 30.2895Z" fill="#BAC6D8"/>
<path d="M8.91295 31.0158C9.23869 30.966 9.57186 31.018 9.86694 31.1646C9.65337 31.4133 9.36788 31.5896 9.04987 31.6692C8.72414 31.7187 8.39106 31.6667 8.09589 31.5203C8.30933 31.2715 8.59486 31.0952 8.91295 31.0158Z" fill="#BAC6D8"/>
<path d="M8.29269 29.6971C8.46476 29.9727 8.545 30.2958 8.52188 30.6199C8.21108 30.5232 7.93768 30.333 7.73905 30.0752C7.56686 29.7991 7.48662 29.4755 7.50985 29.1509C7.82064 29.2484 8.09393 29.4391 8.29269 29.6971Z" fill="#BAC6D8"/>
<path d="M7.60543 30.3237C7.93444 30.3258 8.2547 30.4298 8.52221 30.6214C8.27044 30.8351 7.95833 30.9652 7.62924 30.9934C7.30024 30.9913 6.97997 30.8873 6.71246 30.6958C6.96423 30.482 7.27635 30.3519 7.60543 30.3237Z" fill="#BAC6D8"/>
<path d="M7.17399 28.7952C7.27428 29.1038 7.27428 29.4362 7.17399 29.7448C6.89063 29.5769 6.66765 29.3238 6.53701 29.0215C6.43672 28.7129 6.43672 28.3805 6.53701 28.0719C6.82037 28.2397 7.04335 28.4929 7.17399 28.7952Z" fill="#BAC6D8"/>
<path d="M6.35236 29.2387C6.67064 29.3185 6.9562 29.4953 7.16943 29.7447C6.8742 29.8909 6.54118 29.9429 6.21544 29.8935C5.89698 29.8134 5.61139 29.636 5.39838 29.386C5.69356 29.2397 6.02678 29.1882 6.35236 29.2387Z" fill="#BAC6D8"/>
<path d="M6.32724 27.749C6.35033 28.0732 6.26953 28.3964 6.09655 28.6717C5.8508 28.4541 5.69351 28.1538 5.65455 27.8279C5.61559 27.5019 5.69768 27.173 5.88522 26.9036C6.11764 27.132 6.27228 27.4278 6.32724 27.749Z" fill="#BAC6D8"/>
<path d="M5.42181 27.9901C5.71444 28.1403 5.95239 28.3787 6.10195 28.6717C5.78065 28.7454 5.44443 28.7184 5.13903 28.5943C4.84795 28.444 4.61194 28.2054 4.46484 27.9127C4.78423 27.8398 5.11829 27.8668 5.42181 27.9901Z" fill="#BAC6D8"/>
<path d="M5.60493 26.4319C5.56079 26.7545 5.416 27.055 5.19119 27.2906C4.99479 27.0282 4.90146 26.7028 4.92889 26.3761C4.95632 26.0494 5.1026 25.7441 5.34002 25.5181C5.52291 25.7869 5.61568 26.1069 5.60493 26.4319Z" fill="#BAC6D8"/>
<path d="M4.67136 26.4914C4.92504 26.6961 5.10739 26.9759 5.19226 27.2906C4.86337 27.301 4.53937 27.209 4.26506 27.0272C4.01122 26.8224 3.82842 26.5427 3.74268 26.228C4.07194 26.2184 4.39618 26.3104 4.67136 26.4914Z" fill="#BAC6D8"/>
<path d="M5.2337 25.1773C5.13802 25.4893 4.94701 25.7636 4.6875 25.9616C4.55018 25.6666 4.51055 25.3356 4.57439 25.0165C4.66981 24.7047 4.8609 24.4309 5.12059 24.2337C5.257 24.5284 5.29659 24.8587 5.2337 25.1773Z" fill="#BAC6D8"/>
<path d="M4.29963 25.0894C4.51749 25.332 4.65295 25.6373 4.68658 25.9616C4.36027 25.9196 4.05477 25.7782 3.81148 25.5568C3.59333 25.3142 3.45738 25.009 3.42303 24.6846C3.74992 24.7262 4.05604 24.8675 4.29963 25.0894Z" fill="#BAC6D8"/>
<path d="M5.19252 23.7783C5.0218 24.0591 4.76725 24.2793 4.46475 24.4078C4.40423 24.0888 4.44698 23.7588 4.58679 23.4658C4.75634 23.1856 5.00924 22.9655 5.31009 22.8362C5.3721 23.1548 5.33092 23.4848 5.19252 23.7783Z" fill="#BAC6D8"/>
<path d="M4.31651 23.4717C4.46348 23.7603 4.51557 24.0879 4.46534 24.4078C4.16176 24.291 3.90181 24.083 3.7212 23.8125C3.57016 23.5253 3.5139 23.1976 3.56047 22.8764C3.86843 22.9911 4.1328 23.1992 4.31651 23.4717Z" fill="#BAC6D8"/>
<path d="M5.44111 22.3673C5.21006 22.601 4.91202 22.7571 4.58832 22.8138C4.60491 22.4871 4.72535 22.1743 4.93211 21.9208C5.16414 21.6876 5.46247 21.5317 5.78639 21.4743C5.76927 21.8012 5.64831 22.114 5.44111 22.3673Z" fill="#BAC6D8"/>
<path d="M4.65637 21.8628C4.73525 22.1779 4.7118 22.5099 4.5894 22.8108C4.31992 22.6261 4.11573 22.361 4.00599 22.0533C3.92721 21.7382 3.95067 21.4062 4.07296 21.1052C4.34201 21.2904 4.54609 21.5554 4.65637 21.8628Z" fill="#BAC6D8"/>
<path d="M5.95423 21.2065C5.67497 21.3813 5.34854 21.4655 5.01959 21.4476C5.11288 21.1347 5.30245 20.8592 5.56132 20.6603C5.84004 20.4856 6.166 20.4013 6.49447 20.4192C6.4014 20.7318 6.21241 21.0072 5.95423 21.2065Z" fill="#BAC6D8"/>
<path d="M5.30411 20.5383C5.30749 20.8636 5.20742 21.1815 5.01836 21.4462C4.78672 21.2147 4.64792 20.9064 4.62817 20.5795C4.60843 20.2526 4.70911 19.9298 4.9112 19.6721C5.13026 19.9122 5.26779 20.2154 5.30411 20.5383Z" fill="#BAC6D8"/>
<path d="M6.59149 20.1557C6.28824 20.2849 5.95257 20.3177 5.63007 20.2495C5.7731 19.9549 6.00467 19.7124 6.29235 19.556C6.59513 19.4268 6.93046 19.3946 7.25229 19.4637C7.10981 19.7578 6.8787 19.9998 6.59149 20.1557Z" fill="#BAC6D8"/>
<path d="M6.05926 19.3967C6.01008 19.7191 5.86002 20.0177 5.63063 20.2495C5.43777 19.9842 5.34897 19.6573 5.38106 19.3309C5.41316 19.0044 5.56392 18.7011 5.80476 18.4785C5.98442 18.75 6.07351 19.0714 6.05926 19.3967Z" fill="#BAC6D8"/>
<path d="M13.7214 30.6363C13.4748 30.8496 13.3024 31.1357 13.2288 31.4533C13.5581 31.4507 13.8788 31.3468 14.147 31.1557C14.3936 30.9423 14.5661 30.6562 14.6397 30.3386C14.3102 30.341 13.9896 30.445 13.7214 30.6363Z" fill="#BAC6D8"/>
<path d="M14.1932 31.434C13.8774 31.3409 13.5405 31.3476 13.2288 31.4533C13.4065 31.7302 13.6668 31.9442 13.9729 32.065C14.2893 32.1573 14.6263 32.1505 14.9388 32.0457C14.7607 31.7685 14.4998 31.5544 14.1932 31.434Z" fill="#BAC6D8"/>
<path d="M15.0515 30.2895C14.8368 30.5346 14.7055 30.8415 14.6765 31.1661C15.0017 31.12 15.3048 30.9744 15.5441 30.7494C15.7587 30.5047 15.89 30.1983 15.9192 29.8743C15.5941 29.9199 15.291 30.0649 15.0515 30.2895Z" fill="#BAC6D8"/>
<path d="M15.6273 31.0158C15.3021 30.9661 14.9694 31.018 14.6748 31.1646C14.8884 31.4133 15.1739 31.5896 15.4919 31.6691C15.8176 31.7187 16.1507 31.6667 16.4459 31.5203C16.232 31.2712 15.9459 31.0948 15.6273 31.0158Z" fill="#BAC6D8"/>
<path d="M16.2475 29.648C16.0752 29.9235 15.995 30.2466 16.0183 30.5707C16.3321 30.4752 16.6083 30.2843 16.8086 30.0245C16.9815 29.7493 17.0618 29.4259 17.0378 29.1018C16.7241 29.1976 16.448 29.3885 16.2475 29.648Z" fill="#BAC6D8"/>
<path d="M16.9359 30.2746C16.6065 30.2769 16.2858 30.3808 16.0176 30.5722C16.2601 30.7986 16.5757 30.9307 16.9072 30.9443C17.2387 30.958 17.5641 30.8523 17.8244 30.6466C17.5737 30.4338 17.2634 30.3039 16.9359 30.2746Z" fill="#BAC6D8"/>
<path d="M17.328 28.7685C17.2268 29.0774 17.2268 29.4106 17.328 29.7195C17.609 29.5521 17.8303 29.3006 17.9605 29.0006C18.0612 28.6916 18.0612 28.3586 17.9605 28.0496C17.68 28.2176 17.4589 28.4689 17.328 28.7685Z" fill="#BAC6D8"/>
<path d="M18.1572 29.2119C17.839 29.2926 17.5536 29.4699 17.3401 29.7194C17.6352 29.8661 17.9684 29.9181 18.2941 29.8682C18.6126 29.7889 18.8983 29.612 19.1112 29.3622C18.8162 29.2153 18.4831 29.1628 18.1572 29.2119Z" fill="#BAC6D8"/>
<path d="M18.2195 27.6537C18.1984 27.9779 18.2808 28.3005 18.4546 28.575C18.7 28.3574 18.857 28.0574 18.896 27.7318C18.9349 27.4062 18.8531 27.0777 18.666 26.8084C18.4317 27.036 18.2755 27.3319 18.2195 27.6537Z" fill="#BAC6D8"/>
<path d="M19.1244 27.8948C18.8356 28.0461 18.6014 28.2839 18.4547 28.575C18.7758 28.6497 19.1121 28.6232 19.4176 28.4991C19.7074 28.3475 19.9426 28.1092 20.0903 27.8174C19.768 27.743 19.4306 27.77 19.1244 27.8948Z" fill="#BAC6D8"/>
<path d="M18.8596 26.408C18.9038 26.7306 19.0486 27.0311 19.2734 27.2667C19.4698 27.0043 19.5631 26.6789 19.5357 26.3522C19.5082 26.0255 19.362 25.7202 19.1245 25.4942C18.9423 25.7633 18.8496 26.0831 18.8596 26.408Z" fill="#BAC6D8"/>
<path d="M19.7939 26.4676C19.5401 26.6724 19.3573 26.952 19.2715 27.2668C19.6008 27.2764 19.9251 27.1844 20.2002 27.0033C20.4541 26.7985 20.6369 26.5188 20.7226 26.2041C20.3934 26.1945 20.0691 26.2865 19.7939 26.4676Z" fill="#BAC6D8"/>
<path d="M19.2344 25.1519C19.3294 25.4643 19.5205 25.7387 19.7806 25.9362C19.9178 25.6418 19.9574 25.3112 19.8937 24.9927C19.7986 24.6803 19.6075 24.4058 19.3475 24.2083C19.2103 24.5028 19.1706 24.8334 19.2344 25.1519Z" fill="#BAC6D8"/>
<path d="M20.1675 25.0642C19.9496 25.3061 19.8141 25.6109 19.7806 25.9348C20.1064 25.8927 20.4114 25.7514 20.6542 25.53C20.8719 25.2879 21.0073 24.9832 21.0411 24.6594C20.7151 24.7007 20.4099 24.8422 20.1675 25.0642Z" fill="#BAC6D8"/>
<path d="M19.2686 23.799C19.4387 24.0787 19.6915 24.2987 19.9919 24.4286C20.0516 24.1089 20.0083 23.7785 19.8684 23.485C19.6983 23.2053 19.4456 22.9853 19.1451 22.8555C19.0855 23.1751 19.1287 23.5055 19.2686 23.799Z" fill="#BAC6D8"/>
<path d="M20.1519 23.491C20 23.7785 19.9437 24.107 19.9912 24.4286C20.2947 24.3117 20.5546 24.1037 20.7353 23.8333C20.8872 23.5458 20.9435 23.2174 20.8961 22.8957C20.5922 23.0121 20.3322 23.2202 20.1519 23.491Z" fill="#BAC6D8"/>
<path d="M19.0063 22.3852C19.2379 22.619 19.5364 22.775 19.8606 22.8317C19.843 22.5049 19.7221 22.1922 19.5153 21.9387C19.2834 21.7053 18.985 21.5493 18.661 21.4922C18.6785 21.819 18.7995 22.1317 19.0063 22.3852Z" fill="#BAC6D8"/>
<path d="M19.7947 21.8777C19.7159 22.1929 19.7399 22.5251 19.8632 22.8257C20.1322 22.6406 20.3363 22.3756 20.4466 22.0682C20.5244 21.7529 20.5004 21.421 20.3781 21.1202C20.1095 21.3057 19.9055 21.5706 19.7947 21.8777Z" fill="#BAC6D8"/>
<path d="M18.5095 21.2452C18.7888 21.42 19.1152 21.5042 19.4442 21.4863C19.3509 21.1734 19.1613 20.8979 18.9024 20.699C18.6237 20.5243 18.2978 20.44 17.9693 20.4579C18.0624 20.7705 18.2514 21.0459 18.5095 21.2452Z" fill="#BAC6D8"/>
<path d="M19.1577 20.5785C19.1544 20.9038 19.2544 21.2217 19.4435 21.4863C19.6755 21.2548 19.8146 20.9462 19.8343 20.6189C19.8541 20.2917 19.7532 19.9686 19.5506 19.7108C19.3313 19.9513 19.1938 20.255 19.1577 20.5785Z" fill="#BAC6D8"/>
<path d="M17.8335 20.2019C18.1368 20.3311 18.4725 20.3638 18.795 20.2956C18.6521 20.0014 18.4212 19.759 18.1342 19.6021C17.8306 19.4738 17.4951 19.4416 17.1727 19.5098C17.3148 19.8042 17.546 20.0464 17.8335 20.2019Z" fill="#BAC6D8"/>
<path d="M18.366 19.4429C18.4159 19.7651 18.5658 20.0634 18.7946 20.2957C18.9868 20.0297 19.0746 19.7024 19.0414 19.3759C19.0082 19.0495 18.8563 18.7465 18.6146 18.5246C18.437 18.7969 18.35 19.1183 18.366 19.4429Z" fill="#BAC6D8"/>
<path d="M17.4726 18.7032C17.4506 18.7254 17.4272 18.7463 17.4026 18.7657L17.3788 18.7806C18.1718 19.4416 18.8108 20.2678 19.2514 21.2015C19.692 22.1351 19.9235 23.1536 19.9297 24.186C19.9297 28.2043 16.4725 31.4652 12.2234 31.4652C7.97438 31.4652 4.51562 28.1999 4.51562 24.186C4.5205 23.1997 4.73185 22.2253 5.13608 21.3256C5.5403 20.4259 6.12844 19.6208 6.86263 18.9621C6.81953 18.9497 6.77768 18.9332 6.73762 18.913C6.00306 19.5818 5.41532 20.3957 5.01158 21.3034C4.60784 22.211 4.39689 23.1926 4.39209 24.186C4.39209 28.2639 7.90443 31.5827 12.2234 31.5827C16.5424 31.5827 20.0533 28.2639 20.0533 24.186C20.0473 23.1395 19.8133 22.1068 19.3677 21.1599C18.922 20.213 18.2753 19.3747 17.4726 18.7032Z" fill="#BAC6D8"/>
<path d="M7.62906 19.2271C7.30376 19.2804 6.96995 19.2315 6.67358 19.0872C6.8849 18.8362 7.16878 18.6569 7.48618 18.5738C7.81149 18.5214 8.14504 18.5702 8.44166 18.7137C8.2308 18.9652 7.94674 19.1447 7.62906 19.2271Z" fill="#BAC6D8"/>
<path d="M7.29279 18.3639C7.16571 18.6647 6.94698 18.9178 6.66772 19.0872C6.56224 18.7802 6.55755 18.4475 6.65432 18.1377C6.78518 17.8347 7.0087 17.5809 7.29279 17.4129C7.39392 17.7218 7.39392 18.0549 7.29279 18.3639Z" fill="#BAC6D8"/>
<path d="M16.8488 19.2271C17.1741 19.2804 17.5079 19.2315 17.8043 19.0872C17.5929 18.8362 17.3091 18.6569 16.9917 18.5738C16.6664 18.5214 16.3328 18.5702 16.0362 18.7137C16.2471 18.9652 16.5311 19.1447 16.8488 19.2271Z" fill="#BAC6D8"/>
<path d="M17.1783 18.3639C17.3063 18.6646 17.5255 18.9176 17.8049 19.0872C17.9104 18.7802 17.9151 18.4475 17.8183 18.1377C17.6909 17.8366 17.4723 17.5831 17.1932 17.4129C17.0877 17.7203 17.0825 18.0533 17.1783 18.3639Z" fill="#BAC6D8"/>
</g>
<defs>
<clipPath id="clip0">
<rect width="24.4658" height="36" fill="white"/>
</clipPath>
</defs>
</svg>
