<svg width="24" height="37" viewBox="0 0 24 37" fill="none" xmlns="http://www.w3.org/2000/svg">
<path d="M12.3027 0L7.91986 11.187H16.3761L21.2793 0H12.3027Z" fill="#2D1E66"/>
<path d="M18.0624 14.4729V11.7751C18.0616 11.2455 17.8525 10.7379 17.4809 10.3634C17.1093 9.98899 16.6055 9.77827 16.08 9.77747H7.91853C7.39313 9.77827 6.8895 9.98904 6.51813 10.3635C6.14676 10.738 5.93798 11.2457 5.93758 11.7751V14.4729C3.6632 15.8145 1.89038 17.8733 0.892838 20.3313C-0.104699 22.7893 -0.271465 25.5098 0.41829 28.0729C1.10804 30.6359 2.61596 32.8988 4.70919 34.5123C6.80243 36.1257 9.36457 36.9999 12 36.9999C14.6354 36.9999 17.1976 36.1257 19.2908 34.5123C21.384 32.8988 22.892 30.6359 23.5817 28.0729C24.2715 25.5098 24.1047 22.7893 23.1072 20.3313C22.1096 17.8733 20.3368 15.8145 18.0624 14.4729ZM7.33643 13.7651V11.7751C7.33643 11.6194 7.39771 11.47 7.50683 11.3598C7.61595 11.2495 7.76401 11.1874 7.91853 11.187H16.08C16.2345 11.1874 16.3825 11.2495 16.4917 11.3598C16.6008 11.47 16.6621 11.6194 16.6621 11.7751V13.7651C15.1858 13.1398 13.6006 12.8178 11.9992 12.8178C10.3979 12.8178 8.81266 13.1398 7.33643 13.7651Z" fill="#FF8B00"/>
<path d="M11.9978 34.7341C10.0695 34.7341 8.18444 34.1579 6.5811 33.0784C4.97775 31.9989 3.72809 30.4645 2.99015 28.6694C2.25221 26.8742 2.05913 24.8988 2.43533 22.9931C2.81153 21.0873 3.74011 19.3368 5.10364 17.9628C6.46718 16.5889 8.20443 15.6532 10.0957 15.2741C11.987 14.895 13.9473 15.0896 15.7289 15.8332C17.5104 16.5768 19.0331 17.836 20.1045 19.4516C21.1758 21.0672 21.7476 22.9667 21.7476 24.9097C21.7448 27.5145 20.7167 30.0117 18.8889 31.8535C17.061 33.6953 14.5828 34.7313 11.9978 34.7341Z" fill="#FFCF03"/>
<path d="M10.6903 32.1074C10.9549 32.3377 11.1402 32.6465 11.2198 32.9895C10.8671 32.9883 10.5235 32.8771 10.2361 32.6712C9.97141 32.4408 9.7856 32.1321 9.70514 31.7891C10.0581 31.7911 10.402 31.9022 10.6903 32.1074Z" fill="#FFFF03"/>
<path d="M10.1861 32.9699C10.5248 32.8691 10.8862 32.876 11.2209 32.9896C11.0311 33.2874 10.7541 33.5183 10.4282 33.6505C10.0893 33.7505 9.728 33.7431 9.39337 33.6292C9.58253 33.3312 9.8598 33.1006 10.1861 32.9699Z" fill="#FFFF03"/>
<path d="M9.05673 31.6618C9.28681 31.9261 9.42746 32.2574 9.45834 32.6076C9.10919 32.5568 8.78435 32.3979 8.52878 32.1529C8.29878 31.8884 8.15768 31.5573 8.12567 31.2071C8.47523 31.258 8.80053 31.4169 9.05673 31.6618Z" fill="#FFFF03"/>
<path d="M8.44008 32.4469C8.78881 32.3935 9.1454 32.4496 9.46139 32.6075C9.23244 32.8768 8.92594 33.0675 8.58448 33.1532C8.23575 33.2065 7.87916 33.1505 7.56317 32.9925C7.79213 32.7233 8.09862 32.5325 8.44008 32.4469Z" fill="#FFFF03"/>
<path d="M7.77418 31.0221C7.95926 31.3198 8.04564 31.669 8.02086 32.0194C7.68467 31.9162 7.3887 31.7102 7.17403 31.4298C6.98905 31.1321 6.90267 30.7829 6.92735 30.4325C7.26354 30.5357 7.55951 30.7417 7.77418 31.0221Z" fill="#FFFF03"/>
<path d="M7.03718 31.6982C7.39003 31.701 7.73348 31.8132 8.02088 32.0195C7.7519 32.2494 7.41863 32.3892 7.06726 32.4196C6.71449 32.4177 6.37092 32.306 6.08356 32.0998C6.35261 31.8699 6.68575 31.7296 7.03718 31.6982Z" fill="#FFFF03"/>
<path d="M6.57877 30.0477C6.68664 30.3811 6.68664 30.7404 6.57877 31.0738C6.27835 30.8926 6.04169 30.6212 5.90191 30.2978C5.7936 29.9639 5.7936 29.604 5.90191 29.2702C6.2023 29.4521 6.43891 29.7239 6.57877 30.0477Z" fill="#FFFF03"/>
<path d="M5.69603 30.5267C6.03721 30.6128 6.34322 30.8041 6.57144 31.0738C6.25493 31.2318 5.89769 31.2874 5.54863 31.2329C5.20744 31.1468 4.90143 30.9555 4.67322 30.6858C4.98972 30.5278 5.34696 30.4722 5.69603 30.5267Z" fill="#FFFF03"/>
<path d="M5.66979 28.9171C5.69295 29.2677 5.60556 29.6168 5.4201 29.9144C5.17113 29.6691 5.00533 29.3508 4.9463 29.005C4.92186 28.6549 5.0088 28.3061 5.19448 28.0092C5.44332 28.2543 5.60956 28.5718 5.66979 28.9171Z" fill="#FFFF03"/>
<path d="M4.69627 29.1777C5.00729 29.3408 5.25939 29.5985 5.41675 29.9143C5.07245 29.9937 4.71226 29.9646 4.38491 29.8309C4.07389 29.6678 3.82179 29.4101 3.66443 29.0943C4.00873 29.0149 4.36892 29.044 4.69627 29.1777Z" fill="#FFFF03"/>
<path d="M4.89308 27.4954C4.84392 27.8449 4.68592 28.1697 4.44184 28.4229C4.23108 28.1395 4.13103 27.7879 4.1607 27.4349C4.19037 27.082 4.3477 26.7524 4.60278 26.5087C4.80143 26.798 4.90315 27.1437 4.89308 27.4954Z" fill="#FFFF03"/>
<path d="M3.89279 27.5591C4.16526 27.7802 4.36115 28.0827 4.45233 28.423C4.09915 28.4327 3.75171 28.3315 3.4581 28.1335C3.18547 27.9142 2.98815 27.6141 2.89404 27.2757C3.24805 27.2636 3.59704 27.3627 3.89279 27.5591Z" fill="#FFFF03"/>
<path d="M4.49477 26.1403C4.39275 26.4771 4.18803 26.7731 3.90966 26.986C3.76604 26.6666 3.72604 26.3097 3.79535 25.966C3.89879 25.6295 4.10386 25.3338 4.38196 25.1203C4.52609 25.4396 4.5656 25.7969 4.49477 26.1403Z" fill="#FFFF03"/>
<path d="M3.49331 26.0464C3.72652 26.3077 3.87182 26.6366 3.90845 26.9861C3.55882 26.9418 3.23143 26.7893 2.97138 26.5496C2.73842 26.2877 2.59364 25.9583 2.55774 25.6084C2.90713 25.6531 3.23408 25.8062 3.49331 26.0464Z" fill="#FFFF03"/>
<path d="M4.45246 24.6293C4.2698 24.9315 3.99865 25.1693 3.67633 25.3098C3.61192 24.9647 3.65828 24.608 3.80869 24.2913C3.99002 23.9885 4.26091 23.7505 4.58332 23.6107C4.64777 23.9557 4.60195 24.3123 4.45246 24.6293Z" fill="#FFFF03"/>
<path d="M3.50562 24.2974C3.66708 24.6083 3.72709 24.9626 3.67709 25.3098C3.34939 25.1821 3.06922 24.9549 2.87538 24.6596C2.71282 24.3491 2.65276 23.9945 2.70391 23.6472C3.03161 23.7749 3.31178 24.0021 3.50562 24.2974Z" fill="#FFFF03"/>
<path d="M4.71749 23.1045C4.46924 23.3563 4.14983 23.5246 3.80298 23.5865C3.82281 23.2354 3.95232 22.8996 4.173 22.6271C4.42145 22.3758 4.74084 22.2081 5.08751 22.1466C5.06737 22.4972 4.93787 22.8325 4.71749 23.1045Z" fill="#FFFF03"/>
<path d="M3.87653 22.5604C3.96123 22.9009 3.93594 23.2599 3.80434 23.585C3.51644 23.3843 3.29773 23.0982 3.17862 22.7665C3.09493 22.4257 3.12073 22.067 3.25232 21.7419C3.54043 21.942 3.7588 22.2283 3.87653 22.5604Z" fill="#FFFF03"/>
<path d="M5.26738 21.851C4.96787 22.0393 4.61817 22.1303 4.26562 22.1117C4.36543 21.7733 4.56925 21.4756 4.84773 21.2614C5.14634 21.0723 5.49582 20.9812 5.84798 21.0007C5.74792 21.3386 5.54477 21.6361 5.26738 21.851Z" fill="#FFFF03"/>
<path d="M4.57011 21.1312C4.57539 21.4819 4.47005 21.8253 4.26928 22.1118C4.0193 21.8622 3.86943 21.5284 3.84834 21.1744C3.82725 20.8204 3.93642 20.471 4.15496 20.193C4.38789 20.4539 4.53317 20.7822 4.57011 21.1312Z" fill="#FFFF03"/>
<path d="M5.95221 20.7159C5.62722 20.8555 5.26734 20.8905 4.92188 20.816C5.07446 20.4982 5.32229 20.2368 5.63032 20.0688C5.95532 19.9292 6.31519 19.8942 6.66066 19.9687C6.50807 20.2865 6.26025 20.5478 5.95221 20.7159Z" fill="#FFFF03"/>
<path d="M5.37974 19.896C5.32906 20.2428 5.17117 20.5647 4.9285 20.8159C4.72151 20.5294 4.62669 20.1759 4.66222 19.8233C4.69774 19.4706 4.8611 19.1436 5.12103 18.9047C5.30947 19.1991 5.40008 19.5463 5.37974 19.896Z" fill="#FFFF03"/>
<path d="M13.5933 32.0361C13.3288 32.2664 13.1434 32.5752 13.0638 32.9182C13.4165 32.917 13.7601 32.8058 14.0475 32.5999C14.3121 32.3697 14.4974 32.0608 14.577 31.7178C14.2245 31.72 13.8811 31.8311 13.5933 32.0361Z" fill="#FFFF03"/>
<path d="M14.0987 32.8971C13.7597 32.7971 13.3985 32.8045 13.0638 32.9184C13.2531 33.2166 13.5303 33.4477 13.8565 33.5792C14.1955 33.6791 14.5567 33.6717 14.8914 33.558C14.7015 33.2602 14.4245 33.0293 14.0987 32.8971Z" fill="#FFFF03"/>
<path d="M15.0205 31.6618C14.7904 31.9261 14.6498 32.2574 14.6189 32.6076C14.9685 32.5567 15.2937 32.3978 15.55 32.1529C15.7794 31.8882 15.92 31.5572 15.9516 31.2071C15.602 31.258 15.2767 31.4169 15.0205 31.6618Z" fill="#FFFF03"/>
<path d="M15.6402 32.4469C15.2915 32.3935 14.9349 32.4496 14.6189 32.6075C14.8479 32.8768 15.1543 33.0675 15.4958 33.1532C15.8445 33.2065 16.2011 33.1505 16.5171 32.9925C16.2882 32.7233 15.9817 32.5325 15.6402 32.4469Z" fill="#FFFF03"/>
<path d="M16.2989 30.9677C16.115 31.2658 16.0292 31.6148 16.0537 31.965C16.3897 31.8615 16.6856 31.6555 16.9006 31.3754C17.0856 31.0777 17.172 30.7285 17.1472 30.3781C16.8107 30.4814 16.5143 30.6874 16.2989 30.9677Z" fill="#FFFF03"/>
<path d="M17.0394 31.6452C16.6866 31.6467 16.3429 31.7584 16.0557 31.965C16.3156 32.2091 16.6536 32.3515 17.0086 32.3665C17.3636 32.3815 17.7123 32.2681 17.9915 32.0468C17.7229 31.8172 17.3903 31.6769 17.0394 31.6452Z" fill="#FFFF03"/>
<path d="M17.4576 30.0188C17.3493 30.3522 17.3493 30.7116 17.4576 31.0449C17.759 30.8645 17.9964 30.593 18.1359 30.2689C18.2438 29.9355 18.2438 29.5762 18.1359 29.2428C17.8349 29.4238 17.5977 29.6952 17.4576 30.0188Z" fill="#FFFF03"/>
<path d="M18.3409 30.4977C17.9994 30.5843 17.6931 30.7754 17.464 31.0449C17.7805 31.2027 18.1376 31.2588 18.4868 31.2055C18.8279 31.1191 19.1339 30.9279 19.3622 30.6584C19.0462 30.5004 18.6896 30.4443 18.3409 30.4977Z" fill="#FFFF03"/>
<path d="M18.4177 28.814C18.3934 29.1645 18.4803 29.5138 18.6659 29.8113C18.9146 29.5656 19.0807 29.2476 19.1412 28.9019C19.1643 28.5513 19.0769 28.2022 18.8915 27.9046C18.6425 28.15 18.4767 28.4682 18.4177 28.814Z" fill="#FFFF03"/>
<path d="M19.3864 29.0747C19.0751 29.238 18.8226 29.4957 18.6644 29.8113C19.0087 29.8907 19.3689 29.8616 19.6963 29.728C20.0075 29.5647 20.2601 29.307 20.4183 28.9914C20.074 28.912 19.7138 28.9411 19.3864 29.0747Z" fill="#FFFF03"/>
<path d="M19.1015 27.4695C19.1486 27.8182 19.3039 28.1428 19.5453 28.3971C19.7561 28.1134 19.8562 27.7615 19.8266 27.4084C19.7969 27.0552 19.6395 26.7253 19.3843 26.4813C19.1884 26.7722 19.0894 27.1182 19.1015 27.4695Z" fill="#FFFF03"/>
<path d="M20.1064 27.5272C19.8339 27.7483 19.6381 28.0508 19.5469 28.3911C19.8995 28.4013 20.2466 28.3018 20.5411 28.1062C20.8131 27.8846 21.0089 27.5823 21.1006 27.2423C20.7481 27.2321 20.4009 27.3316 20.1064 27.5272Z" fill="#FFFF03"/>
<path d="M19.5035 26.1117C19.6055 26.4486 19.8102 26.7445 20.0886 26.9574C20.2347 26.6388 20.2774 26.2819 20.2104 25.9374C20.107 25.6009 19.9019 25.3052 19.6238 25.0917C19.4771 25.4102 19.435 25.7675 19.5035 26.1117Z" fill="#FFFF03"/>
<path d="M20.5021 26.0117C20.2689 26.273 20.1236 26.6019 20.087 26.9514C20.4366 26.907 20.764 26.7545 21.0241 26.5149C21.2576 26.2531 21.4029 25.9237 21.4392 25.5736C21.0895 25.6189 20.7623 25.7719 20.5021 26.0117Z" fill="#FFFF03"/>
<path d="M19.5404 24.6475C19.7217 24.9503 19.9926 25.1883 20.315 25.328C20.3795 24.9831 20.3336 24.6265 20.1841 24.3095C20.0015 24.0072 19.7303 23.7695 19.408 23.629C19.3436 23.974 19.39 24.3308 19.5404 24.6475Z" fill="#FFFF03"/>
<path d="M20.4891 24.3186C20.3264 24.6291 20.2658 24.9836 20.3161 25.331C20.644 25.2038 20.9243 24.9765 21.1178 24.6808C21.2805 24.3703 21.341 24.0158 21.2908 23.6684C20.9628 23.7956 20.6825 24.023 20.4891 24.3186Z" fill="#FFFF03"/>
<path d="M19.2586 23.1319C19.5064 23.3841 19.8261 23.552 20.1731 23.6123C20.153 23.2617 20.0235 22.9265 19.8031 22.6544C19.5551 22.4025 19.2355 22.2346 18.8886 22.174C18.9088 22.5246 19.0382 22.8598 19.2586 23.1319Z" fill="#FFFF03"/>
<path d="M20.1034 22.5817C20.0188 22.9218 20.0441 23.2802 20.1756 23.6047C20.4639 23.4045 20.6827 23.1183 20.8013 22.7863C20.8849 22.446 20.859 22.0878 20.7276 21.7632C20.4395 21.9633 20.2211 22.2497 20.1034 22.5817Z" fill="#FFFF03"/>
<path d="M18.7273 21.892C19.0259 22.0811 19.3754 22.1722 19.7276 22.1527C19.6282 21.8145 19.4249 21.5168 19.147 21.3024C18.848 21.1141 18.4988 21.0231 18.1467 21.0417C18.2461 21.3799 18.4494 21.6776 18.7273 21.892Z" fill="#FFFF03"/>
<path d="M19.4207 21.1721C19.4161 21.5228 19.5214 21.8659 19.7215 22.1528C19.9717 21.9035 20.1217 21.57 20.1428 21.2162C20.1639 20.8623 20.0546 20.5131 19.8358 20.2355C19.6032 20.496 19.4579 20.8237 19.4207 21.1721Z" fill="#FFFF03"/>
<path d="M18.0007 20.7659C18.3257 20.9056 18.6854 20.9411 19.0311 20.8674C18.878 20.5491 18.6297 20.2873 18.3211 20.1187C17.9961 19.9791 17.6362 19.9442 17.2908 20.0187C17.4437 20.3367 17.6921 20.5981 18.0007 20.7659Z" fill="#FFFF03"/>
<path d="M18.5711 19.949C18.6239 20.2968 18.7844 20.6188 19.0299 20.869C19.2364 20.5815 19.3306 20.2274 19.2945 19.8743C19.2585 19.5212 19.0946 19.1939 18.8343 18.9548C18.6441 19.2496 18.5519 19.5979 18.5711 19.949Z" fill="#FFFF03"/>
<path d="M17.6126 19.1472C17.5889 19.1714 17.5637 19.1942 17.5373 19.2154L17.5118 19.2305C18.362 19.9446 19.0472 20.8372 19.5195 21.8459C19.9919 22.8546 20.2399 23.955 20.2463 25.0703C20.2463 29.405 16.5401 32.9319 11.9856 32.9319C7.43106 32.9319 3.72337 29.405 3.72337 25.0703C3.72881 24.0047 3.95551 22.952 4.3889 21.9799C4.82229 21.0078 5.45276 20.1379 6.23979 19.4261C6.19375 19.4129 6.14895 19.3956 6.10592 19.3745C5.31834 20.0968 4.68815 20.976 4.25525 21.9565C3.82235 22.9369 3.59616 23.9972 3.591 25.0703C3.591 29.4748 7.35134 33.0577 11.9856 33.0577C16.6198 33.0577 20.3802 29.4748 20.3802 25.0703C20.3734 23.9397 20.1223 22.8242 19.6444 21.8013C19.1664 20.7784 18.4731 19.8727 17.6126 19.1472Z" fill="#FFFF03"/>
<path d="M7.06509 19.7124C6.71631 19.7694 6.35859 19.7164 6.04077 19.5609C6.26659 19.289 6.57108 19.0951 6.91167 19.0062C7.26045 18.9492 7.61817 19.0022 7.93598 19.1577C7.71017 19.4296 7.40567 19.6235 7.06509 19.7124Z" fill="#FFFF03"/>
<path d="M6.71042 18.7804C6.57388 19.1056 6.33916 19.3793 6.03957 19.5625C5.927 19.2306 5.92174 18.8714 6.02453 18.5364C6.16159 18.2115 6.39618 17.938 6.69537 17.7543C6.80794 18.0861 6.81321 18.4454 6.71042 18.7804Z" fill="#FFFF03"/>
<path d="M16.9434 19.7125C17.2922 19.7695 17.6499 19.7165 17.9677 19.561C17.7419 19.2891 17.4374 19.0951 17.0969 19.0062C16.7486 18.9494 16.3914 19.0023 16.074 19.1578C16.2995 19.4294 16.6034 19.6233 16.9434 19.7125Z" fill="#FFFF03"/>
<path d="M17.298 18.7804C17.4343 19.1053 17.6684 19.3789 17.9674 19.5625C18.08 19.2306 18.0852 18.8714 17.9824 18.5364C17.8459 18.2111 17.6112 17.9375 17.3116 17.7543C17.199 18.0862 17.1942 18.4456 17.298 18.7804Z" fill="#FFFF03"/>
<path d="M15.5693 28.9595L12.2347 27.5621L8.88646 28.9292L9.17525 25.3007L6.84985 22.515L10.3635 21.6708L12.2753 18.5804L14.157 21.6874L17.6646 22.5635L15.3136 25.328L15.5693 28.9595Z" fill="#FFFF03"/>
<g style="mix-blend-mode:screen">
<path d="M12.2328 27.562L12.3651 27.6166L8.08437 22.2179L7.42255 22.377L11.7033 27.7772L12.2328 27.562Z" fill="#FFF8C5"/>
</g>
<g style="mix-blend-mode:screen">
<path d="M15.367 26.1145L11.0111 20.6218L10.6651 21.1796L15.4437 27.2058L15.367 26.1145Z" fill="#FFF8C5"/>
</g>
<g style="mix-blend-mode:screen">
<path d="M15.8475 24.6975L11.7142 19.4837L11.3682 20.0415L15.4384 25.1765L15.8475 24.6975Z" fill="#FFF8C5"/>
</g>
<g style="mix-blend-mode:screen">
<path d="M15.5667 28.9595L15.499 28.0077L10.4105 21.5889L10.3608 21.6708L8.91235 22.0179L13.8414 28.2365L15.5667 28.9595Z" fill="#FFF8C5"/>
</g>
<path d="M0.719421 0H10.5309L16.651 11.6584H7.34638L0.719421 0Z" fill="#004DA2"/>
</svg>
