<svg width="24" height="36" viewBox="0 0 24 36" fill="none" xmlns="http://www.w3.org/2000/svg">
<g clip-path="url(#clip0)">
<path d="M20.3007 0L16.3252 9.93129H8.06781L11.7381 0H20.3007Z" fill="#AB322F"/>
<path d="M16.7041 8.20932H7.76339C7.6237 8.20913 7.48533 8.23701 7.35622 8.29137C7.2271 8.34573 7.10976 8.42551 7.01091 8.52613C6.91206 8.62676 6.83364 8.74627 6.78014 8.87782C6.72664 9.00937 6.6991 9.15038 6.6991 9.29279V15.0971H17.7684V9.29279C17.768 9.0053 17.6557 8.72972 17.4561 8.52657C17.2566 8.32342 16.9861 8.20932 16.7041 8.20932ZM16.9815 10.3361H7.28307V9.88959C7.28307 9.65789 7.37336 9.43568 7.53408 9.27185C7.6948 9.10801 7.91277 9.01597 8.14006 9.01597H16.1245C16.3518 9.01597 16.5698 9.10801 16.7305 9.27185C16.8912 9.43568 16.9815 9.65789 16.9815 9.88959V10.3361Z" fill="#F28F0E"/>
<path d="M4.22388 0L8.0679 9.93129H16.3253L12.5674 0H4.22388Z" fill="#FA352C"/>
<path d="M9.97898 9.93129L5.75975 0H5.28235L9.50158 9.93129H9.97898Z" fill="#FCE0E0"/>
<path d="M11.7657 9.93129L7.54649 0H7.06909L11.2883 9.93129H11.7657Z" fill="#FCE0E0"/>
<path d="M13.7416 9.93129L9.52238 0H9.04498L13.2642 9.93129H13.7416Z" fill="#FCE0E0"/>
<path d="M15.4869 9.93129L11.2677 0H10.7903L15.0095 9.93129H15.4869Z" fill="#FCE0E0"/>
<path d="M22.7324 29.2425C25.6966 23.2004 23.2947 15.8526 17.3676 12.8309C11.4405 9.80916 4.23261 12.2577 1.26841 18.2999C-1.69579 24.342 0.706128 31.6898 6.63325 34.7115C12.5604 37.7333 19.7682 35.2847 22.7324 29.2425Z" fill="#FFB10F"/>
<path d="M21.6483 16.4946C23.3356 19.1646 23.9382 22.3988 23.3286 25.5135C22.7191 28.6281 20.9452 31.379 18.3821 33.1845C15.8189 34.9901 12.6675 35.7087 9.59398 35.1884C6.52052 34.6681 3.766 32.9498 1.91284 30.3967C2.78403 31.7752 3.91821 32.9612 5.24796 33.884C6.57771 34.8069 8.07589 35.4477 9.65345 35.7686C11.231 36.0894 12.8557 36.0837 14.4311 35.7516C16.0064 35.4196 17.5002 34.7681 18.8236 33.8359C20.147 32.9037 21.2731 31.7097 22.1348 30.325C22.9966 28.9403 23.5765 27.3931 23.84 25.7753C24.1035 24.1576 24.0453 22.5024 23.6688 20.9081C23.2923 19.3138 22.6052 17.8129 21.6483 16.4946Z" fill="#FF930F"/>
<path d="M20.7529 28.2333C23.1704 23.3056 21.2115 17.3132 16.3776 14.8488C11.5438 12.3844 5.66543 14.3813 3.24797 19.309C0.830522 24.2367 2.78941 30.2292 7.62327 32.6935C12.4571 35.1579 18.3355 33.161 20.7529 28.2333Z" fill="#FFDC01"/>
<path d="M10.8035 30.5558C11.0453 30.7688 11.2149 31.0543 11.2882 31.3714C10.9649 31.3698 10.6501 31.2658 10.3874 31.0737C10.1456 30.8607 9.97596 30.5753 9.90271 30.2582C10.2259 30.2606 10.5404 30.3645 10.8035 30.5558Z" fill="#FFF375"/>
<path d="M10.3407 31.3521C10.6511 31.2599 10.9817 31.2667 11.2882 31.3715C11.1135 31.648 10.8582 31.8619 10.5582 31.9831C10.248 32.0762 9.91708 32.0694 9.61072 31.9638C9.78546 31.6872 10.0407 31.4734 10.3407 31.3521Z" fill="#FFF375"/>
<path d="M9.3105 30.1421C9.52107 30.3873 9.64989 30.6942 9.6784 31.0187C9.35923 30.9729 9.06185 30.8273 8.82726 30.602C8.61661 30.3575 8.48776 30.051 8.45935 29.7269C8.77819 29.7729 9.07539 29.9178 9.3105 30.1421Z" fill="#FFF375"/>
<path d="M8.74157 30.8685C9.06111 30.8186 9.38794 30.8706 9.6774 31.0173C9.46751 31.2662 9.18691 31.4425 8.87443 31.5218C8.55537 31.5712 8.22913 31.5192 7.94006 31.373C8.14944 31.1241 8.42954 30.9478 8.74157 30.8685Z" fill="#FFF375"/>
<path d="M8.13476 29.5498C8.30356 29.8254 8.38228 30.1485 8.35959 30.4725C8.0547 30.3759 7.78652 30.1857 7.59166 29.9278C7.42275 29.6517 7.34404 29.3282 7.36683 29.0036C7.6717 29.1011 7.93979 29.2918 8.13476 29.5498Z" fill="#FFF375"/>
<path d="M7.46062 30.1763C7.78336 30.1785 8.09753 30.2825 8.35995 30.474C8.11297 30.6878 7.8068 30.8178 7.48398 30.8461C7.16124 30.8439 6.84707 30.74 6.58466 30.5484C6.83163 30.3346 7.1378 30.2046 7.46062 30.1763Z" fill="#FFF375"/>
<path d="M7.03714 28.6479C7.13552 28.9565 7.13552 29.2889 7.03714 29.5974C6.75894 29.4292 6.54018 29.1755 6.41228 28.8726C6.31309 28.5642 6.31309 28.2315 6.41228 27.9231C6.69048 28.0913 6.90924 28.3451 7.03714 28.6479Z" fill="#FFF375"/>
<path d="M6.23142 29.0914C6.54363 29.1711 6.82376 29.348 7.03293 29.5974C6.74332 29.7436 6.41663 29.7955 6.0971 29.7462C5.7847 29.666 5.50456 29.4886 5.29559 29.2387C5.58516 29.0924 5.91203 29.0409 6.23142 29.0914Z" fill="#FFF375"/>
<path d="M6.20711 27.6016C6.22977 27.9259 6.15051 28.2491 5.98082 28.5243C5.74013 28.3068 5.58609 28.0068 5.54788 27.6812C5.50967 27.3556 5.58995 27.027 5.77351 26.7577C6.00164 26.9854 6.15339 27.2808 6.20711 27.6016Z" fill="#FFF375"/>
<path d="M5.31857 27.8427C5.60562 27.9929 5.83904 28.2314 5.98576 28.5243C5.67058 28.5981 5.34076 28.5711 5.04118 28.447C4.75563 28.2967 4.52411 28.058 4.37982 27.7653C4.69312 27.6924 5.02082 27.7195 5.31857 27.8427Z" fill="#FFF375"/>
<path d="M5.49782 26.286C5.45452 26.6087 5.31249 26.9092 5.09196 27.1448C4.89889 26.8822 4.8071 26.5565 4.83401 26.2294C4.86092 25.9024 5.00466 25.5969 5.23795 25.3707C5.41729 25.6402 5.50827 25.9606 5.49782 26.286Z" fill="#FFF375"/>
<path d="M4.58074 26.3426C4.82954 26.548 5.00837 26.8282 5.09172 27.1433C4.76899 27.1528 4.4513 27.0602 4.18218 26.8784C3.93317 26.6736 3.75385 26.3939 3.66974 26.0792C3.99273 26.0696 4.3108 26.1615 4.58074 26.3426Z" fill="#FFF375"/>
<path d="M5.13403 25.0299C5.04017 25.342 4.85281 25.6163 4.59824 25.8142C4.46352 25.5193 4.42465 25.1882 4.48728 24.8692C4.58088 24.5574 4.76833 24.2835 5.02308 24.0863C5.15689 24.381 5.19573 24.7113 5.13403 25.0299Z" fill="#FFF375"/>
<path d="M4.21776 24.9436C4.43153 25.1855 4.56444 25.4903 4.59734 25.8142C4.27724 25.7722 3.97756 25.6309 3.73889 25.4094C3.5251 25.1673 3.39174 24.8626 3.35785 24.5388C3.67873 24.5795 3.97923 24.721 4.21776 24.9436Z" fill="#FFF375"/>
<path d="M5.09417 23.631C4.92639 23.9112 4.67674 24.1308 4.38026 24.259C4.32175 23.9398 4.36419 23.61 4.50143 23.3169C4.66776 23.0368 4.91585 22.8167 5.21097 22.6874C5.27166 23.0066 5.23074 23.3372 5.09417 23.631Z" fill="#FFF375"/>
<path d="M4.2348 23.3244C4.37914 23.6124 4.43025 23.9396 4.38079 24.259C4.08299 24.1422 3.82798 23.9342 3.65082 23.6637C3.50178 23.3767 3.44654 23.0488 3.49314 22.7276C3.79545 22.8426 4.0548 23.0513 4.2348 23.3244Z" fill="#FFF375"/>
<path d="M5.33747 22.22C5.11082 22.4537 4.81846 22.6097 4.50092 22.6665C4.51719 22.3398 4.63534 22.027 4.83816 21.7735C5.06578 21.5403 5.35842 21.3844 5.67617 21.327C5.65958 21.6539 5.5409 21.9668 5.33747 22.22Z" fill="#FFF375"/>
<path d="M4.56768 21.7154C4.64506 22.0305 4.62205 22.3626 4.50198 22.6635C4.23764 22.4788 4.03733 22.2136 3.92968 21.9059C3.8524 21.5908 3.87541 21.2588 3.99538 20.9579C4.25931 21.143 4.4595 21.408 4.56768 21.7154Z" fill="#FFF375"/>
<path d="M5.83915 21.0591C5.56521 21.2339 5.24499 21.3181 4.9223 21.3002C5.01382 20.9874 5.19977 20.7119 5.45372 20.513C5.72713 20.3382 6.04688 20.254 6.36911 20.2719C6.2778 20.5844 6.09241 20.8599 5.83915 21.0591Z" fill="#FFF375"/>
<path d="M5.20351 20.3895C5.20683 20.7147 5.10867 21.0327 4.9232 21.2973C4.69637 21.0659 4.56046 20.7579 4.54109 20.4314C4.52173 20.1048 4.62026 19.7824 4.81809 19.5248C5.03236 19.7647 5.1672 20.0672 5.20351 20.3895Z" fill="#FFF375"/>
<path d="M6.46601 20.0084C6.16853 20.1376 5.83925 20.1703 5.52289 20.1022C5.6632 19.8076 5.89036 19.5651 6.17256 19.4086C6.46957 19.2795 6.79852 19.2473 7.11423 19.3164C6.97445 19.6105 6.74775 19.8525 6.46601 20.0084Z" fill="#FFF375"/>
<path d="M5.94387 19.2494C5.89562 19.5718 5.74843 19.8703 5.5234 20.1022C5.33421 19.8368 5.2471 19.51 5.27859 19.1835C5.31007 18.8571 5.45796 18.5538 5.69422 18.3311C5.87045 18.6026 5.95785 18.9241 5.94387 19.2494Z" fill="#FFF375"/>
<path d="M13.4601 30.4889C13.2183 30.7023 13.0491 30.9884 12.9769 31.306C13.2995 31.3035 13.6136 31.1995 13.8762 31.0083C14.1187 30.7953 14.2885 30.5091 14.3609 30.1913C14.0377 30.1937 13.7232 30.2976 13.4601 30.4889Z" fill="#FFF375"/>
<path d="M13.9229 31.2866C13.6131 31.1935 13.2827 31.2003 12.9769 31.306C13.1512 31.5829 13.4066 31.7969 13.7068 31.9177C14.0171 32.0108 14.348 32.004 14.6543 31.8983C14.4797 31.6211 14.2237 31.4071 13.9229 31.2866Z" fill="#FFF375"/>
<path d="M14.7649 30.1421C14.5544 30.3873 14.4255 30.6942 14.397 31.0187C14.7161 30.9727 15.0134 30.8271 15.2482 30.602C15.4588 30.3575 15.5877 30.051 15.6161 29.7269C15.2972 29.7726 14.9999 29.9176 14.7649 30.1421Z" fill="#FFF375"/>
<path d="M15.3297 30.8684C15.0106 30.8187 14.6843 30.8707 14.3953 31.0172C14.6048 31.2659 14.8849 31.4422 15.1968 31.5218C15.5164 31.5713 15.8431 31.5193 16.1327 31.3729C15.9229 31.1238 15.6422 30.9475 15.3297 30.8684Z" fill="#FFF375"/>
<path d="M15.9364 29.5006C15.7674 29.7761 15.6887 30.0993 15.7116 30.4234C16.0194 30.3279 16.2904 30.137 16.4868 29.8772C16.6565 29.602 16.7353 29.2786 16.7116 28.9544C16.404 29.0503 16.1331 29.2411 15.9364 29.5006Z" fill="#FFF375"/>
<path d="M16.6134 30.1273C16.2902 30.1296 15.9756 30.2336 15.7126 30.425C15.9505 30.6514 16.2601 30.7834 16.5852 30.7971C16.9104 30.8107 17.2296 30.7051 17.4849 30.4994C17.2391 30.2866 16.9346 30.1566 16.6134 30.1273Z" fill="#FFF375"/>
<path d="M16.998 28.6211C16.8987 28.93 16.8987 29.2632 16.998 29.5721C17.2733 29.4043 17.4902 29.153 17.6185 28.8533C17.7173 28.5443 17.7173 28.2113 17.6185 27.9023C17.3433 28.0702 17.1264 28.3215 16.998 28.6211Z" fill="#FFF375"/>
<path d="M17.8115 29.0646C17.4991 29.1448 17.2189 29.3222 17.0099 29.5721C17.2994 29.719 17.6262 29.771 17.9458 29.721C18.2582 29.6417 18.5384 29.4647 18.7473 29.215C18.4579 29.0681 18.1311 29.0156 17.8115 29.0646Z" fill="#FFF375"/>
<path d="M17.8732 27.5064C17.8529 27.8301 17.9337 28.152 18.1038 28.4261C18.3449 28.2085 18.4992 27.9082 18.5374 27.5823C18.5756 27.2564 18.4951 26.9275 18.3111 26.6581C18.0808 26.8865 17.9275 27.1835 17.8732 27.5064Z" fill="#FFF375"/>
<path d="M18.7602 27.7475C18.4772 27.8983 18.2475 28.1356 18.1033 28.4261C18.4185 28.4999 18.7483 28.4729 19.0479 28.3487C19.3321 28.1972 19.5629 27.9589 19.7078 27.6671C19.3913 27.5936 19.0604 27.6217 18.7602 27.7475Z" fill="#FFF375"/>
<path d="M18.5005 26.2606C18.5438 26.5833 18.6859 26.8838 18.9064 27.1194C19.0991 26.8569 19.1906 26.5315 19.1637 26.2048C19.1368 25.8782 18.9933 25.5729 18.7604 25.3468C18.5816 25.616 18.4907 25.9358 18.5005 26.2606Z" fill="#FFF375"/>
<path d="M19.417 26.3202C19.168 26.525 18.9887 26.8047 18.9046 27.1194C19.2276 27.129 19.5457 27.037 19.8156 26.856C20.0646 26.6511 20.2439 26.3715 20.328 26.0568C20.005 26.0472 19.687 26.1391 19.417 26.3202Z" fill="#FFF375"/>
<path d="M18.8665 25.0031C18.9597 25.3155 19.1472 25.5899 19.4023 25.7874C19.5369 25.4929 19.5757 25.1624 19.5132 24.8438C19.42 24.5315 19.2325 24.257 18.9774 24.0595C18.8428 24.354 18.804 24.6845 18.8665 25.0031Z" fill="#FFF375"/>
<path d="M19.7819 24.9168C19.5681 25.1587 19.4352 25.4636 19.4023 25.7875C19.7219 25.7453 20.0211 25.604 20.2593 25.3827C20.4728 25.1406 20.6057 24.8358 20.6389 24.512C20.319 24.5534 20.0196 24.6948 19.7819 24.9168Z" fill="#FFF375"/>
<path d="M18.9001 23.6518C19.0669 23.9315 19.3148 24.1514 19.6096 24.2813C19.6681 23.9616 19.6257 23.6313 19.4884 23.3377C19.3216 23.0581 19.0736 22.8381 18.7789 22.7082C18.7204 23.0279 18.7628 23.3582 18.9001 23.6518Z" fill="#FFF375"/>
<path d="M19.7686 23.3437C19.6196 23.6312 19.5644 23.9596 19.6109 24.2813C19.9086 24.1643 20.1636 23.9564 20.3409 23.686C20.4898 23.3985 20.5451 23.0701 20.4985 22.7484C20.2008 22.8654 19.9459 23.0733 19.7686 23.3437Z" fill="#FFF375"/>
<path d="M18.6444 22.2394C18.8715 22.4732 19.1644 22.6293 19.4824 22.6859C19.4652 22.3592 19.3466 22.0465 19.1437 21.7929C18.9162 21.5595 18.6235 21.4035 18.3057 21.3465C18.3233 21.6731 18.4418 21.9857 18.6444 22.2394Z" fill="#FFF375"/>
<path d="M19.4178 21.7289C19.3405 22.0441 19.364 22.3763 19.485 22.6769C19.7489 22.4918 19.9491 22.2268 20.0573 21.9194C20.1336 21.604 20.1101 21.2722 19.9901 20.9713C19.7266 21.1569 19.5265 21.4217 19.4178 21.7289Z" fill="#FFF375"/>
<path d="M18.1555 21.0979C18.4294 21.2727 18.7496 21.3569 19.0723 21.339C18.9808 21.0261 18.7948 20.7506 18.5409 20.5517C18.2671 20.3778 17.9476 20.2936 17.6255 20.3106C17.7168 20.6232 17.9022 20.8986 18.1555 21.0979Z" fill="#FFF375"/>
<path d="M18.7929 20.4311C18.7896 20.7564 18.8878 21.0743 19.0732 21.339C19.3009 21.1074 19.4373 20.7988 19.4566 20.4716C19.476 20.1444 19.377 19.8213 19.1784 19.5635C18.9635 19.8042 18.8286 20.1078 18.7929 20.4311Z" fill="#FFF375"/>
<path d="M17.4939 20.056C17.7916 20.1843 18.1208 20.2165 18.437 20.1483C18.2969 19.854 18.0697 19.6119 17.7874 19.4562C17.4904 19.3271 17.1616 19.2943 16.8457 19.3625C16.9852 19.6571 17.212 19.8997 17.4939 20.056Z" fill="#FFF375"/>
<path d="M18.016 19.2971C18.0651 19.6187 18.2122 19.9165 18.4364 20.1483C18.6249 19.8823 18.711 19.555 18.6785 19.2286C18.6459 18.9021 18.4969 18.5992 18.2598 18.3773C18.0854 18.65 18.0001 18.9719 18.016 19.2971Z" fill="#FFF375"/>
<path d="M17.1397 18.5558C17.1182 18.5781 17.0952 18.599 17.0711 18.6183L17.0477 18.6347C17.8257 19.2954 18.4527 20.1213 18.8849 21.0547C19.3172 21.9881 19.5442 23.0065 19.5501 24.0387C19.5501 28.057 16.1586 31.3178 11.9905 31.3178C7.82237 31.3178 4.42946 28.0526 4.42946 24.0387C4.43443 23.0524 4.64184 22.078 5.03836 21.1784C5.43487 20.2787 6.01172 19.4736 6.73179 18.8148C6.68951 18.8023 6.64845 18.7859 6.60915 18.7657C5.88839 19.4344 5.31161 20.2483 4.91531 21.1559C4.51901 22.0636 4.31181 23.0452 4.30682 24.0387C4.30682 28.1165 7.75375 31.4354 11.9905 31.4354C16.2273 31.4354 19.6713 28.1165 19.6713 24.0387C19.665 22.9922 19.4353 21.9597 18.9982 21.0129C18.561 20.066 17.9268 19.2276 17.1397 18.5558Z" fill="#FFF375"/>
<path d="M7.48379 19.0798C7.16484 19.1331 6.8375 19.0848 6.54651 18.9414C6.75347 18.6897 7.03201 18.5098 7.34364 18.4264C7.66275 18.374 7.98994 18.4229 8.28092 18.5663C8.07408 18.8178 7.79543 18.9973 7.48379 19.0798Z" fill="#FFF375"/>
<path d="M7.15384 18.2165C7.02893 18.5176 6.81445 18.7711 6.54066 18.9413C6.43718 18.6338 6.43258 18.3007 6.52752 17.9903C6.65511 17.6864 6.87453 17.432 7.15384 17.264C7.25367 17.5734 7.25367 17.9072 7.15384 18.2165Z" fill="#FFF375"/>
<path d="M16.528 19.0798C16.8469 19.1331 17.1742 19.0848 17.4652 18.9414C17.2583 18.6897 16.9797 18.5098 16.6681 18.4264C16.349 18.374 16.0218 18.4229 15.7308 18.5663C15.9377 18.8178 16.2163 18.9973 16.528 19.0798Z" fill="#FFF375"/>
<path d="M16.8514 18.2165C16.9771 18.5176 17.192 18.771 17.466 18.9413C17.5858 18.6354 17.5908 18.2953 17.4801 17.9859C17.3694 17.6765 17.1508 17.4195 16.866 17.264C16.7618 17.5719 16.7567 17.9055 16.8514 18.2165Z" fill="#FFF375"/>
<path d="M11.5731 19.3922H13.2607V27.682H11.2811V21.6261L9.77003 22.6754L8.80939 21.2407L11.5731 19.3922Z" fill="#FFF375"/>
</g>
<defs>
<clipPath id="clip0">
<rect width="24" height="36" fill="white"/>
</clipPath>
</defs>
</svg>
