<svg width="24" height="36" viewBox="0 0 24 36" fill="none" xmlns="http://www.w3.org/2000/svg">
<g clip-path="url(#clip0)">
<path d="M20.3007 0L16.3252 9.93129H8.06781L11.7381 0H20.3007Z" fill="#8E2323"/>
<path d="M16.7027 8.20932H7.762C7.48011 8.20932 7.20978 8.32347 7.01046 8.52666C6.81114 8.72985 6.69916 9.00543 6.69916 9.29278V15.0971H17.767V9.29278C17.767 9.15037 17.7394 9.00936 17.6859 8.87781C17.6324 8.74626 17.554 8.62676 17.4552 8.52613C17.3563 8.4255 17.239 8.34572 17.1099 8.29136C16.9807 8.237 16.8424 8.20912 16.7027 8.20932ZM16.9801 10.3361H7.28168V9.88958C7.28168 9.65788 7.37196 9.43568 7.53268 9.27184C7.6934 9.108 7.91137 9.01596 8.13866 9.01596H16.1231C16.3504 9.01596 16.5684 9.108 16.7291 9.27184C16.8898 9.43568 16.9801 9.65788 16.9801 9.88958V10.3361Z" fill="#C95506"/>
<path d="M4.22388 0L8.0679 9.93129H16.3253L12.5674 0H4.22388Z" fill="#FA352C"/>
<path d="M9.89742 9.93129L5.75994 0H5.284L9.42148 9.93129H9.89742Z" fill="#7F0B0B"/>
<path d="M11.4138 9.93129L7.2763 0H6.80035L10.9378 9.93129H11.4138Z" fill="#7F0B0B"/>
<path d="M13.1441 9.93129L9.00664 0H8.5307L12.6682 9.93129H13.1441Z" fill="#7F0B0B"/>
<path d="M14.8081 9.93129L10.6706 0H10.1947L14.3322 9.93129H14.8081Z" fill="#7F0B0B"/>
<path d="M23.8445 25.7292C24.9063 19.0609 20.4642 12.7776 13.9228 11.6952C7.38143 10.6128 1.21781 15.1411 0.155991 21.8094C-0.905827 28.4778 3.53625 34.761 10.0776 35.8435C16.619 36.9259 22.7827 32.3976 23.8445 25.7292Z" fill="#FFB839"/>
<path d="M20.2927 14.9305C22.4532 17.242 23.6414 20.3231 23.6037 23.5156C23.566 26.7082 22.3053 29.7592 20.0908 32.017C17.8764 34.2748 14.8837 35.5605 11.7519 35.5995C8.62017 35.6385 5.59757 34.4278 3.32965 32.2258C4.43352 33.4068 5.75799 34.3509 7.22512 35.0024C8.69224 35.6538 10.2724 35.9996 11.8725 36.0192C13.4727 36.0389 15.0605 35.732 16.5426 35.1168C18.0247 34.5015 19.3711 33.5903 20.5025 32.4366C21.634 31.283 22.5277 29.9103 23.131 28.3994C23.7343 26.8884 24.035 25.2697 24.0154 23.6385C23.9959 22.0073 23.6565 20.3965 23.0171 18.9011C22.3778 17.4056 21.4515 16.0556 20.2927 14.9305Z" fill="#EA7603"/>
<path d="M21.6603 25.3677C22.5263 19.9293 18.9035 14.805 13.5687 13.9222C8.23387 13.0394 3.20713 16.7325 2.34116 22.1709C1.4752 27.6092 5.09793 32.7335 10.4328 33.6163C15.7676 34.4991 20.7943 30.806 21.6603 25.3677Z" fill="#FF9B50"/>
<g style="mix-blend-mode:screen" opacity="0.69">
<g style="mix-blend-mode:screen" opacity="0.69">
<path d="M11.0374 30.8192C11.279 31.0328 11.4481 31.3188 11.5207 31.6363C11.198 31.6338 10.8839 31.5298 10.6214 31.3386C10.3795 31.1256 10.2099 30.8402 10.1367 30.5231C10.4597 30.5247 10.7743 30.6282 11.0374 30.8192Z" fill="#46A1DA"/>
</g>
<g style="mix-blend-mode:screen" opacity="0.69">
<path d="M10.5744 31.6169C10.8842 31.5238 11.2146 31.5306 11.5205 31.6363C11.3461 31.9132 11.0908 32.1272 10.7905 32.248C10.4803 32.3411 10.1494 32.3344 9.84302 32.2286C10.0177 31.9514 10.2736 31.7374 10.5744 31.6169Z" fill="#46A1DA"/>
</g>
<g style="mix-blend-mode:screen" opacity="0.69">
<path d="M9.54426 30.407C9.75415 30.6526 9.88288 30.9593 9.91217 31.2836C9.59259 31.2377 9.29476 31.0922 9.05956 30.8669C8.84977 30.6219 8.72105 30.3157 8.69165 29.9918C9.01098 30.0375 9.3087 30.1825 9.54426 30.407Z" fill="#46A1DA"/>
</g>
<g style="mix-blend-mode:screen" opacity="0.69">
<path d="M8.97698 31.1332C9.29651 31.0834 9.62334 31.1354 9.9128 31.2821C9.70291 31.531 9.42232 31.7073 9.10983 31.7866C8.7903 31.8364 8.46347 31.7844 8.17401 31.6378C8.3839 31.3888 8.6645 31.2125 8.97698 31.1332Z" fill="#46A1DA"/>
</g>
<g style="mix-blend-mode:screen" opacity="0.69">
<path d="M8.3692 29.8147C8.538 30.0903 8.61671 30.4133 8.59403 30.7374C8.2862 30.6419 8.01523 30.451 7.8188 30.1912C7.64982 29.9157 7.57109 29.5926 7.59397 29.2685C7.9018 29.364 8.17277 29.5549 8.3692 29.8147Z" fill="#46A1DA"/>
</g>
<g style="mix-blend-mode:screen" opacity="0.69">
<path d="M7.69292 30.4412C8.01614 30.4432 8.33084 30.5471 8.5937 30.7389C8.34673 30.9527 8.04056 31.0827 7.71774 31.111C7.39458 31.1087 7.07999 31.0047 6.81696 30.8133C7.06393 30.5995 7.3701 30.4695 7.69292 30.4412Z" fill="#46A1DA"/>
</g>
<g style="mix-blend-mode:screen" opacity="0.69">
<path d="M7.27019 28.9128C7.36898 29.2213 7.36898 29.5538 7.27019 29.8623C6.99516 29.6946 6.77865 29.4432 6.65117 29.1434C6.55198 28.835 6.55198 28.5024 6.65117 28.1939C6.92589 28.362 7.1423 28.6133 7.27019 28.9128Z" fill="#46A1DA"/>
</g>
<g style="mix-blend-mode:screen" opacity="0.69">
<path d="M6.46372 29.3563C6.77613 29.4356 7.05638 29.6125 7.26523 29.8623C6.97568 30.0087 6.64894 30.0606 6.3294 30.0111C6.01723 29.9304 5.73724 29.7531 5.52789 29.5036C5.81751 29.3574 6.14434 29.306 6.46372 29.3563Z" fill="#46A1DA"/>
</g>
<g style="mix-blend-mode:screen" opacity="0.69">
<path d="M6.44079 27.8665C6.4625 28.1909 6.38276 28.5139 6.21303 28.7892C5.97218 28.5714 5.81817 28.271 5.78022 27.9451C5.74227 27.6192 5.82304 27.2904 6.00718 27.0212C6.23517 27.2496 6.38687 27.5453 6.44079 27.8665Z" fill="#46A1DA"/>
</g>
<g style="mix-blend-mode:screen" opacity="0.69">
<path d="M5.5484 28.1076C5.83304 28.2586 6.06389 28.4971 6.2083 28.7892C5.8936 28.863 5.56423 28.836 5.26517 28.7118C4.97999 28.561 4.7486 28.3226 4.60382 28.0302C4.919 27.9565 5.24882 27.9835 5.5484 28.1076Z" fill="#46A1DA"/>
</g>
<g style="mix-blend-mode:screen" opacity="0.69">
<path d="M5.73211 26.5494C5.6888 26.8721 5.54678 27.1726 5.32624 27.4082C5.13358 27.1457 5.04203 26.8203 5.06894 26.4936C5.09585 26.1669 5.23934 25.8617 5.47224 25.6356C5.65165 25.9045 5.74265 26.2244 5.73211 26.5494Z" fill="#46A1DA"/>
</g>
<g style="mix-blend-mode:screen" opacity="0.69">
<path d="M4.81761 26.6089C5.06662 26.8137 5.24594 27.0934 5.33005 27.4081C5.00742 27.4185 4.68959 27.3264 4.42051 27.1447C4.16936 26.9397 3.98842 26.6588 3.90369 26.3425C4.228 26.3329 4.54727 26.426 4.81761 26.6089Z" fill="#46A1DA"/>
</g>
<g style="mix-blend-mode:screen" opacity="0.69">
<path d="M5.36605 25.3008C5.273 25.6128 5.08544 25.8868 4.83025 26.0836C4.69634 25.7889 4.6575 25.4586 4.7193 25.14C4.81264 24.8261 5.00062 24.5501 5.25655 24.3512C5.39152 24.6477 5.42988 24.9804 5.36605 25.3008Z" fill="#46A1DA"/>
</g>
<g style="mix-blend-mode:screen" opacity="0.69">
<path d="M4.45043 25.207C4.66395 25.4491 4.79683 25.7538 4.83002 26.0776C4.51042 26.0364 4.21111 25.8955 3.97303 25.6743C3.75931 25.4317 3.62643 25.1264 3.59344 24.8022C3.91308 24.8443 4.21227 24.9856 4.45043 25.207Z" fill="#46A1DA"/>
</g>
<g style="mix-blend-mode:screen" opacity="0.69">
<path d="M5.32703 23.8958C5.16071 24.176 4.91262 24.3961 4.6175 24.5254C4.559 24.2062 4.60143 23.8763 4.73868 23.5833C4.90501 23.3032 5.15309 23.083 5.44821 22.9538C5.50672 23.2729 5.46428 23.6028 5.32703 23.8958Z" fill="#46A1DA"/>
</g>
<g style="mix-blend-mode:screen" opacity="0.69">
<path d="M4.45872 23.5892C4.60776 23.8762 4.663 24.2042 4.61639 24.5254C4.31835 24.409 4.06323 24.2009 3.88642 23.9301C3.73736 23.6426 3.68213 23.3141 3.72875 22.9924C4.02675 23.1097 4.28178 23.3182 4.45872 23.5892Z" fill="#46A1DA"/>
</g>
<g style="mix-blend-mode:screen" opacity="0.69">
<path d="M5.57122 22.4849C5.3439 22.7184 5.05112 22.8744 4.73322 22.9313C4.75041 22.6046 4.86902 22.2919 5.07192 22.0384C5.29936 21.805 5.59209 21.649 5.90993 21.5919C5.89234 21.9185 5.77377 22.2311 5.57122 22.4849Z" fill="#46A1DA"/>
</g>
<g style="mix-blend-mode:screen" opacity="0.69">
<path d="M4.8006 21.9803C4.87793 22.2956 4.8544 22.6277 4.73344 22.9284C4.47024 22.7444 4.27012 22.4811 4.16115 22.1753C4.08573 21.8579 4.1113 21.5244 4.23415 21.2228C4.49549 21.4093 4.69346 21.674 4.8006 21.9803Z" fill="#46A1DA"/>
</g>
<g style="mix-blend-mode:screen" opacity="0.69">
<path d="M6.07163 21.3241C5.79792 21.4981 5.4784 21.5822 5.15625 21.5652C5.24951 21.2516 5.43754 20.9761 5.69351 20.7779C5.96554 20.6051 6.28297 20.5215 6.60305 20.5383C6.51127 20.8506 6.32533 21.1255 6.07163 21.3241Z" fill="#46A1DA"/>
</g>
<g style="mix-blend-mode:screen" opacity="0.69">
<path d="M5.43786 20.6573C5.44078 20.9825 5.34265 21.3003 5.15755 21.5652C4.93111 21.3339 4.79544 21.0261 4.77608 20.6999C4.75672 20.3737 4.85501 20.0516 5.05243 19.7941C5.26635 20.0337 5.40116 20.3356 5.43786 20.6573Z" fill="#46A1DA"/>
</g>
<g style="mix-blend-mode:screen" opacity="0.69">
<path d="M6.69996 20.2733C6.40244 20.4025 6.07302 20.4347 5.75684 20.3656C5.89661 20.0715 6.12331 19.8295 6.40505 19.6735C6.70257 19.5444 7.03199 19.5122 7.34818 19.5813C7.20841 19.8754 6.9817 20.1174 6.69996 20.2733Z" fill="#46A1DA"/>
</g>
<g style="mix-blend-mode:screen" opacity="0.69">
<path d="M6.17777 19.5143C6.12904 19.8361 5.9819 20.1341 5.75731 20.3656C5.58285 20.0935 5.49749 19.772 5.5135 19.4474C5.56406 19.1283 5.71105 18.8333 5.93396 18.6035C6.10666 18.8736 6.19193 19.1922 6.17777 19.5143Z" fill="#46A1DA"/>
</g>
<g style="mix-blend-mode:screen" opacity="0.69">
<path d="M13.6939 30.7538C13.4519 30.9673 13.2822 31.2532 13.2092 31.5709C13.5323 31.5685 13.8469 31.4645 14.1099 31.2732C14.3519 31.0597 14.5216 30.7738 14.5946 30.4561C14.2715 30.4586 13.9569 30.5625 13.6939 30.7538Z" fill="#46A1DA"/>
</g>
<g style="mix-blend-mode:screen" opacity="0.69">
<path d="M14.1617 31.5515C13.8514 31.4585 13.5205 31.4652 13.2142 31.5709C13.3888 31.8472 13.6441 32.0607 13.9441 32.1811C14.2543 32.2742 14.5851 32.268 14.8916 32.1632C14.7169 31.8867 14.4617 31.6728 14.1617 31.5515Z" fill="#46A1DA"/>
</g>
<g style="mix-blend-mode:screen" opacity="0.69">
<path d="M14.9972 30.407C14.7873 30.6526 14.6586 30.9593 14.6293 31.2836C14.9489 31.2377 15.2467 31.0922 15.4819 30.8669C15.6917 30.6219 15.8204 30.3157 15.8498 29.9918C15.5305 30.0375 15.2327 30.1825 14.9972 30.407Z" fill="#46A1DA"/>
</g>
<g style="mix-blend-mode:screen" opacity="0.69">
<path d="M15.5651 31.1332C15.2456 31.0834 14.9187 31.1354 14.6293 31.2821C14.8392 31.531 15.1198 31.7073 15.4322 31.7866C15.7518 31.8364 16.0786 31.7844 16.3681 31.6378C16.1582 31.3888 15.8776 31.2125 15.5651 31.1332Z" fill="#46A1DA"/>
</g>
<g style="mix-blend-mode:screen" opacity="0.69">
<path d="M16.1704 29.7655C16.0014 30.041 15.9226 30.3642 15.9455 30.6883C16.2534 30.5928 16.5243 30.4019 16.7208 30.1421C16.8896 29.8665 16.9683 29.5434 16.9456 29.2193C16.6378 29.3148 16.3668 29.5057 16.1704 29.7655Z" fill="#46A1DA"/>
</g>
<g style="mix-blend-mode:screen" opacity="0.69">
<path d="M16.8459 30.3921C16.5231 30.3942 16.2089 30.4982 15.9465 30.6898C16.1935 30.9035 16.4997 31.0336 16.8225 31.0618C17.1456 31.059 17.46 30.9551 17.7233 30.7642C17.4758 30.5503 17.1691 30.4203 16.8459 30.3921Z" fill="#46A1DA"/>
</g>
<g style="mix-blend-mode:screen" opacity="0.69">
<path d="M17.2275 28.886C17.1287 29.195 17.1287 29.528 17.2275 29.837C17.5022 29.6689 17.7186 29.4176 17.8466 29.1182C17.9459 28.8093 17.9459 28.4761 17.8466 28.1672C17.5718 28.3352 17.3554 28.5865 17.2275 28.886Z" fill="#46A1DA"/>
</g>
<g style="mix-blend-mode:screen" opacity="0.69">
<path d="M18.0388 29.3295C17.7264 29.4097 17.4463 29.5871 17.2373 29.837C17.5213 29.9981 17.8524 30.0505 18.1709 29.9847C18.4895 29.919 18.7745 29.7394 18.9746 29.4784C18.685 29.3322 18.3583 29.2802 18.0388 29.3295Z" fill="#46A1DA"/>
</g>
<g style="mix-blend-mode:screen" opacity="0.69">
<path d="M18.1032 27.7713C18.0817 28.0952 18.1614 28.4177 18.3309 28.6925C18.5721 28.4754 18.7267 28.1756 18.7654 27.8499C18.8042 27.5243 18.7244 27.1955 18.5412 26.9259C18.3114 27.1536 18.1581 27.4495 18.1032 27.7713Z" fill="#46A1DA"/>
</g>
<g style="mix-blend-mode:screen" opacity="0.69">
<path d="M18.9938 28.0109C18.7095 28.1624 18.4787 28.4007 18.3339 28.6925C18.6489 28.7672 18.9788 28.7407 19.2784 28.6166C19.5627 28.4651 19.7935 28.2267 19.9383 27.935C19.6233 27.8611 19.2936 27.8876 18.9938 28.0109Z" fill="#46A1DA"/>
</g>
<g style="mix-blend-mode:screen" opacity="0.69">
<path d="M18.7339 26.5255C18.7772 26.8482 18.9192 27.1487 19.1398 27.3843C19.3324 27.1218 19.424 26.7964 19.3971 26.4697C19.3702 26.1431 19.2267 25.8378 18.9938 25.6117C18.8144 25.8806 18.7234 26.2006 18.7339 26.5255Z" fill="#46A1DA"/>
</g>
<g style="mix-blend-mode:screen" opacity="0.69">
<path d="M19.6526 26.5851C19.4036 26.7899 19.2243 27.0696 19.1402 27.3843C19.4632 27.3939 19.7813 27.3019 20.0512 27.1209C20.3 26.9162 20.4789 26.6364 20.5622 26.3217C20.2395 26.3113 19.9217 26.4034 19.6526 26.5851Z" fill="#46A1DA"/>
</g>
<g style="mix-blend-mode:screen" opacity="0.69">
<path d="M19.101 25.268C19.1943 25.5803 19.3818 25.8548 19.6368 26.0523C19.7707 25.7571 19.8095 25.4263 19.7478 25.1072C19.6534 24.7955 19.4655 24.5217 19.2105 24.3244C19.0768 24.6191 19.0385 24.9496 19.101 25.268Z" fill="#46A1DA"/>
</g>
<g style="mix-blend-mode:screen" opacity="0.69">
<path d="M20.0158 25.1802C19.8021 25.4228 19.6692 25.7281 19.6362 26.0524C19.9559 26.0102 20.2551 25.8689 20.4932 25.6475C20.7067 25.4055 20.8396 25.1007 20.8728 24.7769C20.5532 24.8181 20.2539 24.959 20.0158 25.1802Z" fill="#46A1DA"/>
</g>
<g style="mix-blend-mode:screen" opacity="0.69">
<path d="M19.1336 23.9167C19.3013 24.1962 19.5496 24.4161 19.8446 24.5462C19.9032 24.2265 19.8607 23.8962 19.7235 23.6026C19.5566 23.323 19.3087 23.103 19.0139 22.9731C18.9545 23.2926 18.9965 23.6231 19.1336 23.9167Z" fill="#46A1DA"/>
</g>
<g style="mix-blend-mode:screen" opacity="0.69">
<path d="M20.0018 23.6086C19.8536 23.8964 19.7989 24.2247 19.8455 24.5462C20.143 24.4288 20.3979 24.221 20.5755 23.9509C20.7245 23.6634 20.7797 23.3349 20.7332 23.0133C20.4349 23.1298 20.1793 23.3378 20.0018 23.6086Z" fill="#46A1DA"/>
</g>
<g style="mix-blend-mode:screen" opacity="0.69">
<path d="M18.8783 22.5027C19.1048 22.7366 19.3973 22.8927 19.7149 22.9492C19.6986 22.6225 19.5804 22.3097 19.3776 22.0562C19.1505 21.8224 18.8576 21.6664 18.5396 21.6098C18.556 21.9367 18.6747 22.2496 18.8783 22.5027Z" fill="#46A1DA"/>
</g>
<g style="mix-blend-mode:screen" opacity="0.69">
<path d="M19.6486 21.9998C19.5712 22.3149 19.5942 22.6469 19.7143 22.9478C19.9813 22.7643 20.1843 22.499 20.2939 22.1903C20.3711 21.8751 20.3481 21.5431 20.2282 21.2422C19.9615 21.4262 19.7587 21.6913 19.6486 21.9998Z" fill="#46A1DA"/>
</g>
<g style="mix-blend-mode:screen" opacity="0.69">
<path d="M18.3958 21.3627C18.6697 21.5375 18.99 21.6217 19.3126 21.6038C19.2211 21.2909 19.0352 21.0154 18.7812 20.8165C18.5073 20.6418 18.1871 20.5575 17.8644 20.5754C17.9559 20.8883 18.1418 21.1638 18.3958 21.3627Z" fill="#46A1DA"/>
</g>
<g style="mix-blend-mode:screen" opacity="0.69">
<path d="M19.027 20.696C19.0241 21.0212 19.1222 21.339 19.3073 21.6039C19.5347 21.3721 19.6709 21.0634 19.69 20.7362C19.7091 20.409 19.6098 20.086 19.411 19.8284C19.1965 20.0691 19.0622 20.3728 19.027 20.696Z" fill="#46A1DA"/>
</g>
<g style="mix-blend-mode:screen" opacity="0.69">
<path d="M17.7277 20.3194C18.0247 20.4486 18.3535 20.4813 18.6693 20.4132C18.5298 20.1185 18.3031 19.876 18.0211 19.7197C17.7234 19.5913 17.3942 19.5591 17.078 19.6274C17.2182 19.9217 17.4454 20.1638 17.7277 20.3194Z" fill="#46A1DA"/>
</g>
<g style="mix-blend-mode:screen" opacity="0.69">
<path d="M18.2506 19.5605C18.2987 19.8826 18.4453 20.1811 18.6696 20.4132C18.8581 20.1472 18.9442 19.8199 18.9117 19.4935C18.8791 19.167 18.7301 18.8641 18.493 18.6422C18.3189 18.9144 18.234 19.2359 18.2506 19.5605Z" fill="#46A1DA"/>
</g>
<g style="mix-blend-mode:screen" opacity="0.69">
<path d="M17.3737 18.8207C17.3516 18.843 17.3282 18.8639 17.3036 18.8832L17.2802 18.8981C18.0584 19.559 18.6857 20.3851 19.1181 21.3187C19.5506 22.2524 19.7779 23.2711 19.784 24.3035C19.784 28.3219 16.3926 31.5827 12.223 31.5827C8.05339 31.5827 4.66341 28.3174 4.66341 24.3035C4.66828 23.3174 4.8755 22.3431 5.27176 21.4435C5.66802 20.5438 6.24454 19.7386 6.96428 19.0797C6.92255 19.0669 6.88201 19.0505 6.8431 19.0306C6.12213 19.6991 5.54521 20.513 5.14889 21.4206C4.75257 22.3283 4.54549 23.31 4.54077 24.3035C4.54077 28.3814 7.9877 31.7003 12.223 31.7003C16.4583 31.7003 19.9052 28.3814 19.9052 24.3035C19.899 23.2571 19.6693 22.2246 19.2321 21.2777C18.7949 20.3309 18.1608 19.4925 17.3737 18.8207Z" fill="#46A1DA"/>
</g>
<g style="mix-blend-mode:screen" opacity="0.69">
<path d="M7.71774 19.3476C7.39864 19.4009 7.07118 19.352 6.78046 19.2077C6.98775 18.9567 7.26622 18.7773 7.57759 18.6942C7.89621 18.6409 8.22323 18.6898 8.51341 18.8341C8.30727 19.0858 8.02904 19.2653 7.71774 19.3476Z" fill="#46A1DA"/>
</g>
<g style="mix-blend-mode:screen" opacity="0.69">
<path d="M7.39342 18.4814C7.26876 18.7823 7.05419 19.0354 6.78025 19.2047C6.67671 18.8978 6.6716 18.5653 6.76565 18.2552C6.89137 17.9542 7.10627 17.7008 7.38028 17.5304C7.48286 17.8381 7.48746 18.1709 7.39342 18.4814Z" fill="#46A1DA"/>
</g>
<g style="mix-blend-mode:screen" opacity="0.69">
<path d="M16.7605 19.3476C17.0796 19.4009 17.407 19.352 17.6977 19.2077C17.5004 18.9446 17.2171 18.7622 16.8991 18.6937C16.5812 18.6252 16.2498 18.675 15.9648 18.8342C16.1712 19.0854 16.4493 19.2649 16.7605 19.3476Z" fill="#46A1DA"/>
</g>
<g style="mix-blend-mode:screen" opacity="0.69">
<path d="M17.0819 18.4814C17.207 18.782 17.4215 19.0349 17.695 19.2047C17.7986 18.8978 17.8037 18.5653 17.7096 18.2552C17.5842 17.9544 17.3699 17.7011 17.0965 17.5304C16.993 17.8379 16.9879 18.1708 17.0819 18.4814Z" fill="#46A1DA"/>
</g>
</g>
<path d="M13.4902 22.6427C14.4538 22.9032 15.0378 23.5238 15.0378 24.5463C15.0378 26.9885 11.6799 27.3427 9.41992 26.7043L9.53964 25.0032C10.4156 25.463 11.842 25.6401 12.5749 25.152C12.6988 25.0801 12.8034 24.9782 12.8794 24.8553C12.9555 24.7323 13.0006 24.5922 13.0109 24.4472C13.0211 24.3023 12.9961 24.157 12.9382 24.0242C12.8802 23.8914 12.791 23.7753 12.6785 23.686C12.1982 23.3407 11.4551 23.4806 10.7572 23.4479V22.0028H11.6434C13.3822 22.0028 13.4231 20.1454 11.5996 20.1454C10.9771 20.1528 10.3612 20.2758 9.78199 20.5085L9.68855 18.9816C10.0706 18.8616 10.461 18.7715 10.8565 18.7122C15.159 18.0529 15.3298 20.9848 14.5429 21.9745C14.267 22.3014 13.8997 22.5346 13.4902 22.6427Z" fill="#FFB839"/>
</g>
<defs>
<clipPath id="clip0">
<rect width="24" height="36" fill="white"/>
</clipPath>
</defs>
</svg>
