<svg width="117" height="45" viewBox="0 0 117 45" fill="none" xmlns="http://www.w3.org/2000/svg">
<path d="M41.5544 19.0924L37.3978 15.1589L41.2694 10.6261H39.1436L35.2482 15.1885H35.0463V10.6261H31.1153C31.0833 10.6281 31.0524 10.6391 31.0263 10.6577C31.0002 10.6764 30.9798 10.702 30.9674 10.7316C30.9551 10.7612 30.9512 10.7937 30.9564 10.8254C30.9615 10.857 30.9755 10.8867 30.9966 10.9108C31.3957 11.2626 31.712 11.6982 31.9229 12.1864V20.5875H35.0166V16.5116L39.3455 20.5875H41.5544C42.5045 20.5875 42.2373 19.7985 41.5544 19.1162V19.0924ZM47.4925 10.5074C44.2562 10.5015 41.6732 12.7857 41.6732 15.5979C41.6732 18.4101 44.2859 20.6884 47.5044 20.6884C50.7228 20.6884 53.3355 18.4101 53.3355 15.5979C53.3355 12.7857 50.6931 10.5015 47.4747 10.5015L47.4925 10.5074ZM47.4925 18.9263C45.9842 18.9263 44.761 17.4371 44.761 15.5979C44.761 13.7587 45.9664 12.2814 47.4747 12.2814C48.9829 12.2814 50.2062 13.7765 50.2062 15.6157C50.2062 17.4549 48.9829 18.9263 47.4747 18.9263H47.4925ZM76.2148 10.6201H71.6307C71.6081 10.6194 71.5857 10.6239 71.5651 10.6331C71.5445 10.6424 71.5263 10.6562 71.5119 10.6735C71.4818 10.7045 71.4649 10.746 71.4649 10.7892C71.4649 10.8324 71.4818 10.8739 71.5119 10.9049C71.7975 11.1605 72.0419 11.4587 72.2363 11.7889L68.43 20.5875H69.4573C69.8244 20.6099 70.1877 20.5036 70.4847 20.287C70.7817 20.0704 70.9938 19.757 71.0844 19.4009L71.5535 18.3271H76.2623L77.3015 20.5875H78.9166C79.8311 20.5875 80.4012 20.0595 79.9202 18.9738L76.2148 10.6201ZM72.2601 16.6718L73.8871 12.934L75.5201 16.6718H72.2601ZM116.825 18.95L113.132 10.6439H108.548C108.525 10.6432 108.503 10.6476 108.482 10.6568C108.461 10.6661 108.443 10.6799 108.429 10.6973C108.399 10.7283 108.382 10.7698 108.382 10.8129C108.382 10.8561 108.399 10.8976 108.429 10.9286H108.458C108.744 11.1843 108.988 11.4825 109.183 11.8127L105.365 20.5875H106.398C106.765 20.6088 107.128 20.502 107.424 20.2856C107.721 20.0692 107.933 19.7565 108.025 19.4009L108.494 18.3211H113.203L114.212 20.5935H115.828C116.736 20.5875 117.306 20.0358 116.825 18.95ZM109.195 16.6718L110.822 12.934L112.479 16.6718H109.195ZM88.4116 14.791H84.3559V10.6379H80.4308C80.4083 10.6372 80.3859 10.6417 80.3653 10.6509C80.3447 10.6602 80.3265 10.674 80.3121 10.6913C80.282 10.7223 80.2651 10.7638 80.2651 10.807C80.2651 10.8502 80.282 10.8917 80.3121 10.9227C80.7112 11.2745 81.0275 11.7101 81.2384 12.1983V20.5875H84.3321V16.4345H88.3878V20.5875H91.4875V10.6261H88.4056L88.4116 14.791ZM103.465 10.6379H94.124C94.1016 10.638 94.0794 10.6428 94.0589 10.652C94.0385 10.6612 94.0202 10.6746 94.0052 10.6913C93.9751 10.7223 93.9583 10.7638 93.9583 10.807C93.9583 10.8502 93.9751 10.8917 94.0052 10.9227H94.0409C94.4365 11.2763 94.7506 11.7115 94.9613 12.1983V16.5175C94.9676 16.8302 94.9119 17.141 94.7976 17.4321C94.6833 17.7232 94.5125 17.9889 94.2951 18.2138C94.0777 18.4387 93.8179 18.6185 93.5307 18.7429C93.2435 18.8672 92.9346 18.9335 92.6217 18.9382V21.9759H94.8603L95.0503 20.5519H102.455L102.645 21.9759H104.884V18.95H103.465V10.6379ZM100.371 18.9441H96.3448C96.8321 18.2307 97.0929 17.3871 97.093 16.5234V12.2458H100.359L100.371 18.9441ZM64.0478 10.6379L61.2034 17.888L58.2997 10.6261H53.6087C53.5766 10.6281 53.5458 10.6391 53.5196 10.6577C53.4935 10.6764 53.4731 10.702 53.4607 10.7316C53.4484 10.7612 53.4446 10.7937 53.4497 10.8254C53.4549 10.857 53.4688 10.8867 53.4899 10.9108C53.889 11.2626 54.2053 11.6982 54.4162 12.1864V20.5875H55.402C55.5542 20.5923 55.7059 20.5668 55.8483 20.5126C55.9906 20.4583 56.1208 20.3764 56.2312 20.2716C56.3417 20.1667 56.4302 20.0411 56.4917 19.9018C56.5533 19.7625 56.5865 19.6125 56.5896 19.4603V13.7883L59.327 20.5875H61.1084C61.4552 20.6204 61.803 20.5351 62.0951 20.3456C62.3873 20.156 62.6067 19.8733 62.7176 19.5433L64.5881 14.4766V20.5875H66.5655C67.4265 20.5875 67.6819 19.9942 67.6819 19.217V10.6261L64.0478 10.6379Z" fill="#004A99"/>
<path d="M96.6002 23.6608L92.5682 30.187V23.6608H88.6432C88.6106 23.6603 88.5787 23.6693 88.5512 23.6868C88.5238 23.7043 88.5021 23.7294 88.4888 23.7591C88.4755 23.7888 88.4712 23.8217 88.4765 23.8538C88.4818 23.8859 88.4964 23.9157 88.5185 23.9396H88.5482C88.9477 24.2886 89.2642 24.7224 89.4745 25.2093V33.5985H92.5979L96.6239 27.0722V33.5985H99.7236V23.6608H96.6002ZM38.5914 23.6608H31.1153C31.0715 23.6624 31.0295 23.6792 30.9966 23.7082C30.9678 23.7399 30.9518 23.7811 30.9518 23.8239C30.9518 23.8667 30.9678 23.9079 30.9966 23.9396C31.3962 24.2886 31.7126 24.7224 31.9229 25.2093V33.5985H33.9537C34.8148 33.5985 35.0701 32.9756 35.0701 32.228V30.3769H38.6329C39.5243 30.3769 40.3792 30.0231 41.0095 29.3933C41.6398 28.7636 41.9939 27.9094 41.9939 27.0188C41.9939 26.1282 41.6398 25.2741 41.0095 24.6443C40.3792 24.0146 39.5243 23.6608 38.6329 23.6608H38.5914ZM37.0534 28.7572H35.0463V25.2745H37.0534C37.2908 25.2607 37.5286 25.2954 37.7521 25.3767C37.9756 25.4579 38.1801 25.584 38.3531 25.747C38.5261 25.9101 38.6639 26.1067 38.7582 26.3249C38.8524 26.5431 38.901 26.7782 38.901 27.0159C38.901 27.2535 38.8524 27.4886 38.7582 27.7068C38.6639 27.925 38.5261 28.1217 38.3531 28.2847C38.1801 28.4478 37.9756 28.5738 37.7521 28.655C37.5286 28.7363 37.2908 28.7711 37.0534 28.7572ZM60.96 25.2983C62.1937 25.2148 63.4196 25.5492 64.4397 26.2475L65.3245 24.9304C63.9584 24.0171 62.3482 23.5374 60.7047 23.554C57.6762 23.554 54.8735 25.8322 54.8735 28.6445C54.8735 31.4567 57.6762 33.7409 60.7047 33.7409C62.3501 33.7522 63.9605 33.2662 65.3245 32.3467L65.0929 31.9966C64.6891 31.4033 64.024 31.4033 63.3115 31.5991L62.9908 31.7178C62.3385 31.9582 61.64 32.0475 60.9481 31.9788C60.128 31.8872 59.3704 31.4967 58.8203 30.8822C58.2701 30.2676 57.966 29.472 57.966 28.6474C57.966 27.8229 58.2701 27.0273 58.8203 26.4127C59.3704 25.7981 60.128 25.4077 60.9481 25.3161L60.96 25.2983ZM71.5357 25.2983C72.7693 25.2152 73.9951 25.5496 75.0154 26.2475L75.9001 24.9304C74.5338 24.0178 72.9238 23.5381 71.2803 23.554C68.2519 23.554 65.4492 25.8322 65.4492 28.6445C65.4492 31.4567 68.2519 33.7409 71.2803 33.7409C72.9256 33.7515 74.5358 33.2656 75.9001 32.3467L75.6626 31.9966C75.2588 31.4033 74.5938 31.4033 73.8812 31.5991L73.5605 31.7178C72.9102 31.9579 72.2137 32.0472 71.5238 31.9788C70.7037 31.8872 69.9461 31.4967 69.3959 30.8822C68.8458 30.2676 68.5416 29.472 68.5416 28.6474C68.5416 27.8229 68.8458 27.0273 69.3959 26.4127C69.9461 25.7981 70.7037 25.4077 71.5238 25.3161L71.5357 25.2983ZM48.3001 23.5184C45.0816 23.5184 42.4689 25.7966 42.4689 28.6089C42.4689 31.4211 45.0816 33.7053 48.3001 33.7053C51.5185 33.7053 54.1431 31.4389 54.1431 28.6267C54.1431 25.8144 51.5185 23.554 48.3001 23.554V23.5184ZM48.3001 31.9432C46.7918 31.9432 45.5686 30.4481 45.5686 28.6089C45.5686 26.7696 46.7918 25.2805 48.3001 25.2805C49.8083 25.2805 51.0316 26.7696 51.0316 28.6089C51.0316 30.4481 49.8083 31.961 48.3001 31.961V31.9432ZM80.3002 30.1633V23.637H76.3692C76.3251 23.6376 76.2828 23.6545 76.2505 23.6845C76.2348 23.6994 76.2224 23.7174 76.2139 23.7373C76.2054 23.7572 76.201 23.7786 76.201 23.8002C76.201 23.8218 76.2054 23.8432 76.2139 23.8631C76.2224 23.883 76.2348 23.9009 76.2505 23.9159H76.2802C76.6755 24.2673 76.9896 24.7006 77.2006 25.1855V33.5985H80.3299L84.3559 27.0722V33.5985H87.4496V23.6608H84.3262L80.3002 30.1633Z" fill="#004A99"/>
<path d="M1.88733 11.5981C1.31117 12.0427 0.844986 12.6136 0.524781 13.2669C0.204577 13.9201 0.0389191 14.6381 0.0406011 15.3655C0.142569 16.8732 0.800578 18.2896 1.88733 19.3406L2.65928 20.1119L3.65094 21.1027V21.1324C3.70645 21.182 3.77833 21.2095 3.85283 21.2095C3.92858 21.2096 4.00152 21.1808 4.05672 21.129C4.11191 21.0772 4.14519 21.0062 4.14973 20.9306C4.14973 20.9306 4.14973 20.8891 4.14973 20.8654C4.11188 20.2931 4.15183 19.7183 4.26849 19.1567C4.51903 17.8919 5.13891 16.7296 6.04991 15.8164C6.3104 15.5581 6.59031 15.3201 6.88717 15.1044L13.7991 9.62237C16.1743 7.74161 15.9368 4.03349 13.7991 1.90948L12.0176 0.129586C11.9757 0.0877505 11.9223 0.0591518 11.8642 0.0473371C11.8061 0.0355225 11.7458 0.0410118 11.6908 0.0631245C11.6358 0.0852372 11.5885 0.123 11.5547 0.171729C11.521 0.220458 11.5023 0.278008 11.501 0.337241C11.5042 0.360866 11.5042 0.384811 11.501 0.408436C11.6317 2.54431 11.3051 3.74278 9.58899 5.45148C9.33132 5.71285 9.05115 5.95109 8.75172 6.16343L1.88733 11.5981Z" fill="url(#paint0_linear)"/>
<path d="M12.0295 0.765356L13.4784 2.19521C13.9979 2.71974 14.402 3.34692 14.6648 4.03655C14.9276 4.72619 15.0433 5.46306 15.0045 6.19997C14.9832 6.77795 14.8387 7.34473 14.5807 7.86244C14.3226 8.38015 13.957 8.83686 13.5081 9.20207L6.63777 14.6901C5.71728 15.3398 4.96692 16.2014 4.45013 17.2021C3.93334 18.2028 3.66532 19.3131 3.66875 20.4391L2.99775 19.7747L2.2258 18.9974C1.22871 18.0363 0.621842 16.7412 0.521584 15.3605C0.521504 14.7073 0.671343 14.0628 0.959579 13.4766C1.24782 12.8903 1.66677 12.3779 2.18424 11.9787L9.09019 6.49662C9.4007 6.2757 9.69084 6.02751 9.95714 5.755C11.7386 3.9751 12.0948 2.68171 12.0295 0.771289V0.765356ZM11.8217 5.59938e-09C11.7424 -1.5227e-05 11.6662 0.0310491 11.6096 0.0865175C11.553 0.141986 11.5204 0.217432 11.5189 0.296649C11.522 0.320275 11.522 0.34422 11.5189 0.367846C11.6495 2.50372 11.3229 3.70218 9.6068 5.41088C9.34913 5.67226 9.06897 5.9105 8.76953 6.12284L1.88733 11.599C1.31117 12.0436 0.844986 12.6146 0.524781 13.2678C0.204577 13.921 0.0389191 14.6391 0.0406011 15.3664C0.142569 16.8742 0.800578 18.2905 1.88733 19.3415L2.65928 20.1128L3.65094 21.1036V21.1333C3.70645 21.183 3.77833 21.2104 3.85283 21.2104C3.92858 21.2106 4.00152 21.1818 4.05672 21.1299C4.11191 21.0781 4.14519 21.0071 4.14973 20.9316C4.14973 20.9316 4.14973 20.8901 4.14973 20.8663C4.11188 20.294 4.15183 19.7192 4.26849 19.1576C4.51903 17.8928 5.13891 16.7305 6.04991 15.8173C6.3104 15.559 6.59031 15.321 6.88717 15.1054L13.7991 9.62331C16.1743 7.74255 15.9368 4.03443 13.7991 1.91042L12.0176 0.130526C11.961 0.0737361 11.8841 0.0417283 11.8039 0.0415319L11.8217 5.59938e-09Z" fill="url(#paint1_linear)"/>
<path d="M11.4902 21.2164C10.9323 21.7013 10.4914 22.3059 10.2004 22.985C9.90944 23.6641 9.77586 24.4001 9.80971 25.1381C9.84884 26.5821 10.452 27.9536 11.4902 28.959L12.2621 29.7302L12.9331 30.3947C12.9859 30.445 13.0562 30.4727 13.1291 30.4719C13.2045 30.4722 13.2774 30.4445 13.3334 30.394C13.3894 30.3435 13.4245 30.2739 13.4319 30.1989C13.4351 30.1793 13.4351 30.1593 13.4319 30.1396C13.397 29.5673 13.4369 28.9929 13.5507 28.4309C13.8012 27.1661 14.4211 26.0038 15.3321 25.0906C15.5926 24.8342 15.8725 24.5981 16.1694 24.3846L23.0812 18.8966C25.4565 17.0218 25.2249 13.3077 23.0812 11.1837L21.6146 9.71827C21.5579 9.66148 21.481 9.62947 21.4008 9.62927C21.3225 9.63079 21.2479 9.66253 21.1925 9.71784C21.1372 9.77315 21.1054 9.84772 21.1039 9.92592C21.101 9.94956 21.101 9.97348 21.1039 9.99712C21.2345 12.1389 20.902 13.3315 19.1918 15.0461C18.932 15.3057 18.6499 15.542 18.3486 15.7521L11.4902 21.2164Z" fill="#E63329"/>
<path d="M6.84072 16.5649C6.28208 17.0504 5.8407 17.656 5.54967 18.3362C5.25863 19.0164 5.1255 19.7536 5.16025 20.4926C5.20189 21.936 5.80466 23.3065 6.84072 24.3134L7.61267 25.0847L8.28367 25.7492C8.33918 25.7988 8.41106 25.8263 8.48556 25.8263C8.56153 25.8252 8.63443 25.7962 8.6903 25.7447C8.74618 25.6933 8.7811 25.623 8.7884 25.5475C8.79133 25.5258 8.79133 25.5039 8.7884 25.4822C8.75351 24.9099 8.79343 24.3355 8.90716 23.7735C9.1577 22.5087 9.77758 21.3464 10.6886 20.4332C10.9506 20.1766 11.2304 19.9387 11.5258 19.7213L18.4377 14.2392C20.813 12.3644 20.5814 8.65032 18.4377 6.52631L16.971 5.06086C16.929 5.01903 16.8757 4.99043 16.8176 4.97861C16.7595 4.9668 16.6992 4.97229 16.6442 4.9944C16.5892 5.01651 16.5418 5.05428 16.5081 5.103C16.4744 5.15173 16.4557 5.20928 16.4544 5.26852C16.4573 5.29216 16.4573 5.31607 16.4544 5.33971C16.5851 7.48152 16.2585 8.67405 14.5483 10.3828C14.3075 10.6416 14.0453 10.8798 13.7645 11.0947L6.84072 16.5649Z" fill="url(#paint2_linear)"/>
<path style="mix-blend-mode:multiply" d="M11.4902 21.2164C10.9323 21.7013 10.4914 22.3059 10.2004 22.985C9.90944 23.6641 9.77586 24.4001 9.80971 25.1381C9.84884 26.5821 10.452 27.9536 11.4902 28.959L12.2621 29.7302L12.9331 30.3947C12.9859 30.445 13.0562 30.4727 13.1291 30.4719C13.2045 30.4722 13.2774 30.4445 13.3334 30.394C13.3894 30.3435 13.4245 30.2739 13.4319 30.1989C13.4351 30.1793 13.4351 30.1593 13.4319 30.1396C13.397 29.5673 13.4369 28.9929 13.5507 28.4309C13.8012 27.1661 14.4211 26.0038 15.3321 25.0906C15.5926 24.8342 15.8725 24.5981 16.1694 24.3846L23.0812 18.8966C25.4565 17.0218 25.2249 13.3077 23.0812 11.1837L21.6146 9.71827C21.5579 9.66148 21.481 9.62947 21.4008 9.62927C21.3225 9.63079 21.2479 9.66253 21.1925 9.71784C21.1372 9.77315 21.1054 9.84772 21.1039 9.92592C21.101 9.94956 21.101 9.97348 21.1039 9.99712C21.2345 12.1389 20.902 13.3315 19.1918 15.0461C18.932 15.3057 18.6499 15.542 18.3486 15.7521L11.4902 21.2164Z" fill="url(#paint3_linear)"/>
<path d="M16.6503 37.8287C17.4306 37.8285 18.1852 38.108 18.7769 38.6164C19.3686 39.1249 19.7581 39.8285 19.8746 40.5994C20.0924 40.6713 20.3174 40.719 20.5456 40.7418C20.4582 39.7698 20.01 38.8655 19.2892 38.2068C18.5684 37.5481 17.6271 37.1826 16.6503 37.182C16.5375 37.1761 16.4245 37.1761 16.3118 37.182C16.3177 37.2848 16.3177 37.3878 16.3118 37.4906C16.3179 37.6052 16.3179 37.72 16.3118 37.8347C16.4245 37.8288 16.5375 37.8288 16.6503 37.8347V37.8287ZM19.9043 41.2936C19.8684 41.8845 19.6719 42.4544 19.3361 42.942C19.0004 43.4297 18.5379 43.8168 17.9985 44.0616C17.4591 44.3064 16.8631 44.3997 16.2746 44.3315C15.6861 44.2632 15.1273 44.0361 14.6583 43.6744C14.1894 43.3127 13.8279 42.8301 13.6128 42.2785C13.3977 41.727 13.3371 41.1273 13.4375 40.5439C13.5379 39.9605 13.7955 39.4155 14.1827 38.9674C14.5698 38.5194 15.0719 38.1852 15.6348 38.0008C15.6587 37.8377 15.6706 37.6732 15.6705 37.5084C15.6705 37.4431 15.6705 37.3778 15.6705 37.3066C14.9756 37.4875 14.3439 37.856 13.8447 38.3716C13.3454 38.8873 12.9977 39.5303 12.8398 40.2302C12.6818 40.93 12.7197 41.6599 12.9492 42.3397C13.1787 43.0195 13.591 43.6232 14.1409 44.0845C14.6908 44.5459 15.3572 44.8471 16.0671 44.9553C16.7769 45.0635 17.5029 44.9744 18.1655 44.6979C18.8281 44.4213 19.4017 43.9679 19.8236 43.3874C20.2455 42.8068 20.4994 42.1214 20.5575 41.4063C20.3389 41.3871 20.1224 41.3494 19.9102 41.2936" fill="#009640"/>
<path d="M24.8032 37.5024C24.7961 38.5048 24.404 39.4661 23.7079 40.1879C23.0118 40.9097 22.0648 41.3368 21.0625 41.381C20.0603 41.4251 19.0793 41.083 18.3223 40.4253C17.5653 39.7675 17.09 38.8444 16.9946 37.8465C17.2231 37.8713 17.4481 37.9211 17.6656 37.9949C17.7546 38.8255 18.1589 39.5904 18.7954 40.132C19.4319 40.6737 20.2521 40.9508 21.087 40.9063C21.9219 40.8618 22.7079 40.4991 23.2831 39.8929C23.8583 39.2867 24.179 38.4831 24.179 37.6478C24.179 36.8124 23.8583 36.0089 23.2831 35.4027C22.7079 34.7965 21.9219 34.4338 21.087 34.3893C20.2521 34.3448 19.4319 34.6219 18.7954 35.1635C18.1589 35.7052 17.7546 36.4701 17.6656 37.3007C17.4435 37.2467 17.2169 37.2129 16.9887 37.1998C17.0675 36.192 17.5339 35.2538 18.2901 34.5821C19.0463 33.9104 20.0335 33.5575 21.0445 33.5974C22.0555 33.6373 23.0118 34.067 23.7126 34.7962C24.4134 35.5254 24.8043 36.4974 24.8032 37.5084" fill="#E62644"/>
<path d="M7.82635 37.5024C7.82635 36.7291 7.59685 35.9732 7.16686 35.3302C6.73688 34.6872 6.12572 34.1861 5.41068 33.8901C4.69565 33.5942 3.90884 33.5168 3.14975 33.6677C2.39067 33.8185 1.69341 34.1909 1.14614 34.7377C0.598877 35.2845 0.226183 35.9812 0.0751922 36.7396C-0.0757985 37.498 0.00169581 38.2842 0.297875 38.9986C0.594054 39.713 1.09562 40.3237 1.73913 40.7533C2.38265 41.1829 3.13922 41.4122 3.91318 41.4122H4.25165C4.25165 41.3054 4.25165 41.2046 4.25165 41.0978C4.25165 40.991 4.25165 40.8664 4.25165 40.7536C4.1389 40.7597 4.02592 40.7597 3.91318 40.7536C3.09478 40.752 2.30705 40.4423 1.70699 39.8863C1.10693 39.3302 0.738597 38.5687 0.675404 37.7534C0.612211 36.9382 0.858797 36.129 1.36602 35.4873C1.87324 34.8456 2.60385 34.4184 3.41223 34.2909C4.22062 34.1634 5.04741 34.3449 5.72785 34.7992C6.40828 35.2536 6.89238 35.9474 7.08366 36.7425C7.27494 37.5375 7.15937 38.3754 6.75996 39.0891C6.36056 39.8028 5.70666 40.34 4.92858 40.5935C4.90469 40.7545 4.89278 40.9171 4.89295 41.08C4.89295 41.1512 4.89295 41.2164 4.89295 41.2817C5.73161 41.065 6.47459 40.5764 7.00545 39.8924C7.53631 39.2085 7.82503 38.3679 7.82635 37.5024Z" fill="#0079C2"/>
<path d="M12.4165 33.5985C11.4317 33.597 10.4826 33.9672 9.75923 34.6349C9.03586 35.3027 8.59155 36.2187 8.51521 37.1998C8.7336 37.217 8.95012 37.2528 9.16246 37.3066C9.19916 36.7157 9.39635 36.146 9.73282 35.6586C10.0693 35.1713 10.5323 34.7849 11.0722 34.5408C11.612 34.2967 12.2082 34.2043 12.7967 34.2734C13.3852 34.3425 13.9437 34.5705 14.4122 34.933C14.8806 35.2954 15.2414 35.7786 15.4556 36.3306C15.6699 36.8826 15.7295 37.4825 15.6281 38.0658C15.5267 38.649 15.2681 39.1937 14.8801 39.6411C14.4921 40.0886 13.9894 40.4219 13.426 40.6053C13.4021 40.7664 13.3902 40.929 13.3904 41.0918C13.3904 41.1571 13.3904 41.2283 13.3904 41.2935C14.3413 41.0828 15.1792 40.5247 15.7397 39.7287C16.3003 38.9327 16.543 37.9562 16.4203 36.9907C16.2977 36.0252 15.8185 35.1403 15.0767 34.5095C14.335 33.8786 13.3841 33.5474 12.4106 33.5807L12.4165 33.5985ZM12.4106 40.7418C11.6311 40.7422 10.8772 40.4636 10.2857 39.9563C9.69412 39.4491 9.30406 38.7469 9.18621 37.977C8.96645 37.9038 8.73954 37.8541 8.50928 37.8287C8.59682 38.8018 9.04583 39.7069 9.76789 40.3657C10.4899 41.0246 11.4327 41.3894 12.4106 41.3885H12.749C12.7431 41.2837 12.7431 41.1788 12.749 41.074C12.749 40.9613 12.749 40.8426 12.749 40.7299C12.6363 40.7358 12.5233 40.7358 12.4106 40.7299" fill="#1D1D1B"/>
<path d="M7.82631 37.8465C7.83238 37.7319 7.83238 37.617 7.82631 37.5024C7.82631 37.4015 7.82631 37.2947 7.82631 37.1939C7.93905 37.1878 8.05204 37.1878 8.16478 37.1939C9.14161 37.1944 10.0829 37.5599 10.8037 38.2186C11.5245 38.8774 11.9727 39.7816 12.0601 40.7537C11.8315 40.727 11.6065 40.6753 11.3891 40.5994C11.2625 39.7713 10.8219 39.0236 10.1586 38.5112C9.49541 37.9987 8.66032 37.7607 7.82631 37.8465ZM12.072 41.4063C12.014 42.1214 11.7601 42.8068 11.3382 43.3873C10.9163 43.9679 10.3426 44.4213 9.68003 44.6978C9.01744 44.9744 8.29147 45.0634 7.58161 44.9553C6.87174 44.8471 6.20536 44.5458 5.65542 44.0845C5.10548 43.6231 4.6932 43.0195 4.46371 42.3397C4.23422 41.6598 4.19637 40.93 4.35432 40.2301C4.51227 39.5302 4.85991 38.8873 5.35919 38.3716C5.85847 37.856 6.49013 37.4875 7.185 37.3066C7.185 37.3778 7.185 37.4431 7.185 37.5083C7.18538 37.6712 7.17347 37.8338 7.14937 37.9948C6.58668 38.1792 6.08488 38.5132 5.69785 38.961C5.31082 39.4089 5.05319 39.9536 4.9526 40.5366C4.85202 41.1197 4.9123 41.7191 5.12695 42.2706C5.34161 42.822 5.70254 43.3046 6.17099 43.6665C6.63944 44.0285 7.19772 44.2561 7.78587 44.325C8.37403 44.3938 8.96984 44.3013 9.50934 44.0573C10.0488 43.8134 10.5116 43.4272 10.8481 42.9403C11.1845 42.4534 11.3818 41.8841 11.4188 41.2936C11.6309 41.3499 11.8475 41.3876 12.0661 41.4063" fill="#FAB31E"/>
<defs>
<linearGradient id="paint0_linear" x1="0.480016" y1="17.9523" x2="15.3303" y2="3.08935" gradientUnits="userSpaceOnUse">
<stop stop-color="#E3E3E3"/>
<stop offset="0.1" stop-color="#EEEEEE"/>
<stop offset="0.25" stop-color="#FBFBFB"/>
<stop offset="0.4" stop-color="white"/>
<stop offset="0.76" stop-color="#E3E3E3"/>
<stop offset="0.85" stop-color="#E9E9E9"/>
<stop offset="0.97" stop-color="#F9F9F9"/>
<stop offset="1" stop-color="white"/>
</linearGradient>
<linearGradient id="paint1_linear" x1="0.480017" y1="17.9532" x2="15.1879" y2="3.2328" gradientUnits="userSpaceOnUse">
<stop stop-color="#004A99"/>
<stop offset="0.01" stop-color="#044C9A"/>
<stop offset="0.07" stop-color="#295FA7"/>
<stop offset="0.13" stop-color="#466EB1"/>
<stop offset="0.19" stop-color="#5A78B8"/>
<stop offset="0.25" stop-color="#677FBD"/>
<stop offset="0.31" stop-color="#6B81BE"/>
<stop offset="0.65" stop-color="#004A99"/>
<stop offset="0.71" stop-color="#064D9B"/>
<stop offset="0.78" stop-color="#1655A1"/>
<stop offset="0.87" stop-color="#3163AA"/>
<stop offset="0.96" stop-color="#5777B7"/>
<stop offset="1" stop-color="#6B81BE"/>
</linearGradient>
<linearGradient id="paint2_linear" x1="450.468" y1="1374.44" x2="945.107" y2="1019.16" gradientUnits="userSpaceOnUse">
<stop stop-color="#004A99"/>
<stop offset="0.01" stop-color="#044C9A"/>
<stop offset="0.07" stop-color="#295FA7"/>
<stop offset="0.13" stop-color="#466EB1"/>
<stop offset="0.19" stop-color="#5A78B8"/>
<stop offset="0.25" stop-color="#677FBD"/>
<stop offset="0.31" stop-color="#6B81BE"/>
<stop offset="0.65" stop-color="#004A99"/>
<stop offset="0.71" stop-color="#064D9B"/>
<stop offset="0.78" stop-color="#1655A1"/>
<stop offset="0.87" stop-color="#3163AA"/>
<stop offset="0.96" stop-color="#5777B7"/>
<stop offset="1" stop-color="#6B81BE"/>
</linearGradient>
<linearGradient id="paint3_linear" x1="9.94034" y1="27.4104" x2="24.7906" y2="12.5475" gradientUnits="userSpaceOnUse">
<stop stop-color="#B4B4B4"/>
<stop offset="0.01" stop-color="#BDBDBD"/>
<stop offset="0.06" stop-color="#DADADA"/>
<stop offset="0.11" stop-color="#EEEEEE"/>
<stop offset="0.15" stop-color="#FBFBFB"/>
<stop offset="0.2" stop-color="white"/>
<stop offset="0.5" stop-color="#B4B4B4"/>
<stop offset="0.6" stop-color="#BABABA"/>
<stop offset="0.73" stop-color="#CACACA"/>
<stop offset="0.88" stop-color="#E5E5E5"/>
<stop offset="1" stop-color="white"/>
</linearGradient>
</defs>
</svg>
